<svg id="svg" version="1.1" xmlns="http://www.w3.org/2000/svg" xmlns:xlink="http://www.w3.org/1999/xlink" width="400" height="400" viewBox="0, 0, 400,400"><g id="svgg"><path id="path0" d="M179.294 67.208 C 178.796 67.412,178.209 67.988,177.990 68.489 C 177.771 68.990,177.148 70.120,176.606 71.000 C 176.063 71.880,175.139 73.590,174.551 74.800 C 173.964 76.010,173.086 77.630,172.600 78.400 C 172.115 79.170,170.898 81.330,169.895 83.200 C 168.893 85.070,167.629 87.410,167.087 88.400 C 166.545 89.390,165.272 91.773,164.259 93.695 C 163.245 95.617,161.972 97.894,161.429 98.754 C 160.886 99.614,159.337 102.452,157.986 105.059 C 156.636 107.667,155.375 109.988,155.184 110.219 C 154.993 110.449,154.044 112.159,153.075 114.019 C 152.105 115.878,150.930 118.030,150.463 118.800 C 149.996 119.570,149.060 121.280,148.383 122.600 C 147.706 123.920,146.747 125.720,146.251 126.600 C 144.722 129.316,140.561 136.966,140.268 137.600 C 140.116 137.930,139.647 138.740,139.227 139.400 C 138.807 140.060,137.972 141.590,137.370 142.800 C 136.769 144.010,135.418 146.468,134.368 148.262 C 133.318 150.056,131.985 152.486,131.406 153.662 C 130.826 154.838,129.947 156.520,129.451 157.400 C 128.955 158.280,127.774 160.440,126.827 162.200 C 125.358 164.929,123.317 168.557,121.988 170.800 C 121.793 171.130,121.080 172.480,120.405 173.800 C 119.729 175.120,118.755 176.920,118.240 177.800 C 117.725 178.680,116.526 180.930,115.576 182.800 C 114.626 184.670,113.626 186.470,113.354 186.800 C 113.081 187.130,111.925 189.200,110.783 191.400 C 108.138 196.498,106.713 198.965,106.315 199.133 C 106.142 199.207,105.999 199.477,105.998 199.733 C 105.996 199.990,105.707 200.740,105.355 201.400 C 102.912 205.980,102.273 207.136,101.599 208.200 C 101.180 208.860,100.495 210.131,100.075 211.024 C 99.655 211.917,98.340 214.347,97.153 216.424 C 95.965 218.501,94.486 221.190,93.866 222.400 C 93.246 223.610,92.371 225.230,91.921 226.000 C 91.471 226.770,90.208 229.094,89.114 231.165 C 86.606 235.915,86.300 236.464,85.759 237.200 C 85.516 237.530,84.191 239.960,82.815 242.600 C 81.439 245.240,80.193 247.490,80.046 247.600 C 79.899 247.710,79.014 249.330,78.078 251.200 C 77.142 253.070,75.937 255.320,75.401 256.200 C 74.864 257.080,73.926 258.790,73.317 260.000 C 72.707 261.210,71.334 263.730,70.265 265.600 C 69.195 267.470,67.606 270.350,66.732 272.000 C 65.858 273.650,64.723 275.720,64.209 276.600 C 63.696 277.480,62.795 279.164,62.207 280.342 C 61.619 281.519,60.372 283.778,59.436 285.361 C 58.500 286.944,57.232 289.310,56.617 290.620 C 56.003 291.929,55.027 293.720,54.450 294.600 C 52.728 297.223,51.121 300.697,51.271 301.474 C 51.410 302.195,89.538 302.873,92.300 302.203 C 93.309 301.958,94.470 300.262,97.071 295.232 C 98.047 293.344,99.303 290.990,99.862 290.000 C 100.420 289.010,101.985 286.077,103.339 283.483 C 104.692 280.889,106.827 276.839,108.082 274.483 C 109.337 272.127,110.563 269.754,110.807 269.208 C 111.051 268.663,111.374 268.123,111.525 268.008 C 111.676 267.894,112.718 266.000,113.841 263.800 C 117.274 257.072,120.874 250.222,121.197 249.800 C 121.366 249.580,122.591 247.330,123.919 244.800 C 125.247 242.270,126.783 239.390,127.333 238.400 C 127.882 237.410,128.944 235.430,129.691 234.000 C 133.133 227.416,136.608 220.893,137.255 219.800 C 137.645 219.140,138.819 216.890,139.864 214.800 C 140.908 212.710,142.200 210.290,142.735 209.422 C 143.271 208.554,144.647 206.034,145.793 203.822 C 149.572 196.531,152.059 191.823,152.989 190.200 C 153.493 189.320,154.945 186.620,156.217 184.200 C 157.489 181.780,158.868 179.170,159.282 178.400 C 162.193 172.991,164.596 168.427,166.402 164.883 C 167.555 162.619,168.884 160.189,169.355 159.483 C 169.825 158.777,171.006 156.580,171.977 154.600 C 172.949 152.620,174.135 150.370,174.612 149.600 C 175.090 148.830,176.654 145.950,178.089 143.200 C 181.905 135.887,184.172 131.617,188.601 123.400 C 189.786 121.200,191.033 118.860,191.371 118.200 C 191.708 117.540,193.087 114.930,194.434 112.400 C 195.781 109.870,197.410 106.783,198.053 105.539 C 200.064 101.654,200.896 101.537,202.776 104.874 C 203.339 105.873,204.205 107.390,204.700 108.245 C 205.196 109.100,206.489 111.510,207.574 113.600 C 212.451 122.994,213.348 124.697,214.210 126.200 C 214.715 127.080,215.908 129.330,216.862 131.200 C 217.815 133.070,219.105 135.486,219.728 136.568 C 220.911 138.625,223.469 143.429,228.053 152.200 C 229.547 155.060,230.953 157.670,231.177 158.000 C 231.401 158.330,232.499 160.400,233.616 162.600 C 234.734 164.800,235.983 167.140,236.391 167.800 C 236.800 168.460,238.064 170.800,239.201 173.000 C 240.339 175.200,242.518 179.340,244.044 182.200 C 245.571 185.060,247.090 187.940,247.421 188.600 C 247.752 189.260,249.001 191.600,250.197 193.800 C 251.393 196.000,253.298 199.600,254.429 201.800 C 255.561 204.000,257.107 206.880,257.865 208.200 C 258.623 209.520,259.879 211.860,260.657 213.400 C 261.434 214.940,262.687 217.280,263.442 218.600 C 264.196 219.920,265.443 222.260,266.212 223.800 C 266.981 225.340,267.986 227.230,268.444 228.000 C 269.659 230.039,270.728 232.058,271.197 233.200 C 271.423 233.750,272.328 235.460,273.209 237.000 C 274.090 238.540,275.599 241.330,276.563 243.200 C 277.527 245.070,278.767 247.410,279.320 248.400 C 281.161 251.698,287.631 263.947,289.986 268.594 C 290.654 269.911,291.204 271.261,291.209 271.594 C 291.214 271.927,291.857 273.370,292.638 274.800 C 293.419 276.230,295.238 279.650,296.680 282.400 C 298.123 285.150,299.438 287.580,299.603 287.800 C 299.769 288.020,301.015 290.360,302.372 293.000 C 305.933 299.924,307.024 301.724,307.859 302.052 C 309.782 302.809,350.800 302.435,350.800 301.660 C 350.800 301.013,348.428 296.091,347.590 295.000 C 346.973 294.197,342.800 286.361,342.800 286.006 C 342.800 285.805,342.279 284.866,341.643 283.920 C 341.006 282.974,339.636 280.580,338.597 278.600 C 336.031 273.708,335.438 272.634,335.174 272.400 C 335.050 272.290,334.112 270.542,333.089 268.516 C 332.067 266.490,330.781 264.120,330.232 263.251 C 329.683 262.381,328.451 260.169,327.495 258.335 C 326.538 256.501,325.301 254.280,324.746 253.400 C 324.190 252.520,323.229 250.720,322.609 249.400 C 321.990 248.080,321.086 246.370,320.600 245.600 C 320.115 244.830,318.898 242.670,317.895 240.800 C 316.893 238.930,315.620 236.590,315.066 235.600 C 314.512 234.610,313.217 232.180,312.190 230.200 C 309.743 225.486,309.053 224.242,308.750 224.000 C 308.613 223.890,307.687 222.180,306.693 220.200 C 305.699 218.220,304.098 215.250,303.135 213.600 C 302.172 211.950,300.876 209.610,300.256 208.400 C 299.636 207.190,298.515 205.120,297.765 203.800 C 297.015 202.480,295.822 200.230,295.114 198.800 C 294.405 197.370,293.701 196.109,293.548 195.998 C 293.396 195.888,292.201 193.728,290.894 191.198 C 289.586 188.669,287.957 185.660,287.275 184.511 C 286.593 183.363,285.559 181.473,284.979 180.311 C 284.399 179.150,283.504 177.480,282.991 176.600 C 282.477 175.720,281.303 173.560,280.381 171.800 C 278.965 169.098,277.107 165.764,275.589 163.200 C 275.393 162.870,274.768 161.650,274.199 160.489 C 273.631 159.327,272.605 157.437,271.919 156.289 C 271.233 155.140,269.927 152.760,269.015 151.000 C 268.104 149.240,266.906 147.080,266.353 146.200 C 265.800 145.320,264.571 143.070,263.623 141.200 C 262.675 139.330,261.764 137.620,261.600 137.400 C 261.329 137.038,259.465 133.613,256.918 128.800 C 256.394 127.810,255.592 126.370,255.135 125.600 C 254.678 124.830,253.481 122.670,252.474 120.800 C 251.467 118.930,250.239 116.680,249.745 115.800 C 249.252 114.920,248.373 113.236,247.792 112.058 C 247.212 110.881,245.978 108.631,245.049 107.058 C 244.121 105.486,242.773 103.030,242.055 101.600 C 241.337 100.170,240.340 98.280,239.840 97.400 C 239.340 96.520,238.157 94.360,237.211 92.600 C 236.265 90.840,235.358 89.220,235.196 89.000 C 235.033 88.780,234.134 87.160,233.197 85.400 C 229.939 79.282,228.901 77.388,227.652 75.279 C 226.961 74.112,225.868 72.028,225.223 70.648 C 224.577 69.268,223.741 67.883,223.364 67.569 C 222.547 66.891,180.902 66.549,179.294 67.208 " stroke="none" fill="#363635" fill-rule="evenodd"></path><path id="path1" d="M0.000 200.000 L 0.000 400.000 200.000 400.000 L 400.000 400.000 400.000 200.000 L 400.000 0.000 200.000 0.000 L 0.000 0.000 0.000 200.000 M223.869 65.882 C 224.441 66.257,225.160 67.112,225.467 67.782 C 225.774 68.452,226.367 69.540,226.783 70.200 C 227.200 70.860,228.094 72.480,228.769 73.800 C 229.444 75.120,230.707 77.460,231.576 79.000 C 232.444 80.540,233.715 82.880,234.401 84.200 C 235.086 85.520,236.081 87.320,236.611 88.200 C 237.142 89.080,238.346 91.330,239.287 93.200 C 240.228 95.070,241.583 97.496,242.299 98.591 C 243.014 99.686,243.600 100.789,243.600 101.042 C 243.600 101.295,243.870 101.726,244.200 102.000 C 244.530 102.274,244.800 102.740,244.800 103.037 C 244.800 103.333,245.700 105.099,246.800 106.961 C 247.900 108.823,248.979 110.764,249.199 111.274 C 249.418 111.783,249.779 112.515,249.999 112.900 C 250.889 114.454,251.214 115.052,251.793 116.200 C 252.126 116.860,252.743 117.940,253.163 118.600 C 254.537 120.754,256.000 123.662,256.000 124.237 C 256.000 124.547,256.143 124.800,256.318 124.800 C 256.493 124.800,257.227 125.925,257.948 127.300 C 258.670 128.675,259.775 130.700,260.404 131.800 C 261.032 132.900,261.559 134.027,261.573 134.304 C 261.588 134.581,262.194 135.661,262.919 136.704 C 263.645 137.747,265.008 140.130,265.948 142.000 C 266.889 143.870,267.995 145.940,268.407 146.600 C 268.819 147.260,270.006 149.420,271.046 151.400 C 273.116 155.341,274.008 156.974,275.417 159.400 C 275.929 160.280,276.899 162.080,277.574 163.400 C 278.249 164.720,278.978 166.070,279.194 166.400 C 280.545 168.462,282.400 172.032,282.400 172.567 C 282.400 172.915,282.568 173.200,282.774 173.200 C 282.980 173.200,283.376 173.830,283.654 174.600 C 283.933 175.370,284.287 176.000,284.441 176.000 C 284.596 176.000,284.924 176.495,285.171 177.100 C 285.418 177.705,286.602 180.000,287.801 182.200 C 289.001 184.400,290.208 186.650,290.483 187.200 C 290.758 187.750,291.097 188.290,291.235 188.400 C 291.762 188.818,293.600 192.625,293.600 193.297 C 293.600 193.684,293.767 194.000,293.971 194.000 C 294.175 194.000,294.603 194.495,294.923 195.100 C 295.244 195.705,296.058 197.251,296.734 198.536 C 297.409 199.821,298.136 201.082,298.349 201.338 C 298.562 201.595,298.860 202.298,299.011 202.902 C 299.163 203.506,299.430 204.000,299.604 204.000 C 299.779 204.000,300.126 204.495,300.377 205.100 C 300.627 205.705,301.262 206.920,301.789 207.800 C 302.316 208.680,303.216 210.390,303.789 211.600 C 304.362 212.810,305.000 214.070,305.208 214.400 C 307.348 217.796,308.800 220.452,308.800 220.970 C 308.800 221.316,308.953 221.600,309.139 221.600 C 309.326 221.600,309.773 222.275,310.133 223.100 C 310.493 223.925,311.138 225.140,311.567 225.800 C 311.996 226.460,313.190 228.620,314.220 230.600 C 315.251 232.580,316.510 234.920,317.019 235.800 C 317.527 236.680,318.506 238.480,319.193 239.800 C 319.880 241.120,321.068 243.280,321.833 244.600 C 322.598 245.920,323.486 247.573,323.806 248.273 C 324.126 248.973,324.557 249.650,324.763 249.777 C 324.970 249.905,325.257 250.547,325.401 251.205 C 325.545 251.862,325.815 252.400,326.001 252.400 C 326.186 252.400,326.546 253.030,326.800 253.800 C 327.054 254.570,327.389 255.200,327.543 255.200 C 327.698 255.200,328.044 255.695,328.312 256.300 C 329.091 258.057,332.538 264.451,333.648 266.200 C 334.207 267.080,335.239 268.970,335.940 270.400 C 336.642 271.830,337.570 273.540,338.002 274.200 C 338.434 274.860,338.970 275.760,339.193 276.200 C 339.416 276.640,339.779 277.270,339.999 277.600 C 340.220 277.930,340.580 278.650,340.799 279.200 C 341.173 280.137,341.382 280.539,342.408 282.300 C 342.632 282.685,343.088 283.540,343.421 284.200 C 343.753 284.860,344.371 285.940,344.792 286.600 C 345.214 287.260,346.215 289.105,347.017 290.699 C 347.819 292.294,348.866 294.184,349.344 294.899 C 350.822 297.109,352.863 301.576,352.725 302.296 C 352.405 303.954,351.612 304.005,329.400 303.795 C 317.740 303.685,269.385 303.504,221.945 303.393 C 146.241 303.216,135.630 303.118,135.197 302.596 C 134.606 301.884,134.760 301.437,137.882 294.800 C 139.072 292.270,140.283 289.660,140.573 289.000 C 140.863 288.340,141.860 286.180,142.788 284.200 C 143.717 282.220,144.708 280.060,144.991 279.400 C 145.274 278.740,146.292 276.580,147.253 274.600 L 149.000 271.000 218.867 270.800 C 257.293 270.690,288.813 270.510,288.910 270.400 C 289.124 270.158,288.262 268.239,287.203 266.600 C 286.503 265.516,284.863 262.332,284.215 260.800 C 284.076 260.470,283.533 259.480,283.009 258.600 C 282.485 257.720,281.490 255.877,280.797 254.504 C 280.104 253.132,279.372 251.906,279.169 251.781 C 278.966 251.655,278.800 251.244,278.800 250.867 C 278.800 250.490,278.170 249.225,277.400 248.056 C 276.630 246.887,276.000 245.687,276.000 245.389 C 276.000 245.091,275.826 244.740,275.613 244.608 C 275.110 244.297,273.200 240.492,273.200 239.800 C 273.200 239.507,273.045 239.207,272.855 239.133 C 272.389 238.953,268.887 232.582,267.615 229.600 C 267.380 229.050,266.836 228.060,266.407 227.400 C 265.977 226.740,264.752 224.490,263.686 222.400 C 262.620 220.310,261.303 217.880,260.760 217.000 C 260.217 216.120,258.909 213.690,257.853 211.600 C 256.797 209.510,255.595 207.260,255.181 206.600 C 254.767 205.940,253.507 203.600,252.381 201.400 C 251.255 199.200,250.003 196.860,249.599 196.200 C 248.863 195.000,247.086 191.531,246.627 190.400 C 246.494 190.070,245.957 189.080,245.435 188.200 C 243.892 185.601,241.200 180.303,241.200 179.866 C 241.200 179.645,240.948 179.179,240.640 178.831 C 239.816 177.902,236.804 172.373,235.611 169.600 C 235.375 169.050,234.754 167.880,234.232 167.000 C 233.711 166.120,232.167 163.240,230.802 160.600 C 229.437 157.960,228.183 155.710,228.014 155.600 C 227.846 155.490,227.569 154.950,227.400 154.400 C 227.231 153.850,226.966 153.310,226.813 153.200 C 226.451 152.941,224.400 148.570,224.400 148.058 C 224.400 147.843,224.257 147.607,224.081 147.533 C 223.625 147.342,220.400 141.631,220.400 141.014 C 220.400 140.730,220.130 140.274,219.800 140.000 C 219.470 139.726,219.200 139.247,219.200 138.935 C 219.200 138.623,218.878 137.880,218.484 137.284 C 217.261 135.433,216.868 134.716,214.930 130.800 C 213.895 128.710,212.931 126.910,212.786 126.800 C 212.498 126.581,212.373 126.350,209.278 120.328 C 208.110 118.058,206.784 115.570,206.329 114.800 C 205.875 114.030,205.061 112.500,204.519 111.400 C 203.978 110.300,203.369 109.130,203.166 108.800 C 202.964 108.470,202.606 107.750,202.371 107.201 C 201.251 104.578,200.215 104.580,198.903 107.205 C 198.630 107.752,198.244 108.470,198.047 108.800 C 197.849 109.130,197.221 110.390,196.650 111.600 C 196.078 112.810,194.990 114.880,194.232 116.200 C 193.473 117.520,191.938 120.400,190.821 122.600 C 188.712 126.753,188.314 127.471,187.116 129.284 C 186.722 129.880,186.400 130.623,186.400 130.935 C 186.400 131.247,186.130 131.726,185.800 132.000 C 185.470 132.274,185.200 132.823,185.200 133.220 C 185.200 133.618,184.975 134.187,184.700 134.486 C 184.060 135.181,183.319 136.509,180.956 141.200 C 179.903 143.290,178.595 145.720,178.049 146.600 C 177.503 147.480,176.034 150.180,174.784 152.600 C 173.535 155.020,172.036 157.810,171.453 158.800 C 170.869 159.790,170.292 160.880,170.170 161.223 C 170.047 161.565,169.420 162.825,168.777 164.023 C 168.133 165.220,167.385 166.695,167.115 167.300 C 166.845 167.905,166.498 168.400,166.343 168.400 C 166.189 168.400,165.854 169.030,165.600 169.800 C 165.346 170.570,164.972 171.200,164.769 171.200 C 164.566 171.200,164.388 171.515,164.373 171.900 C 164.359 172.285,163.828 173.500,163.193 174.600 C 161.365 177.768,160.828 178.753,158.650 182.933 C 157.522 185.096,156.347 187.346,156.038 187.933 C 155.729 188.520,155.339 189.092,155.170 189.204 C 155.001 189.316,154.741 189.894,154.592 190.488 C 154.443 191.081,154.069 191.777,153.761 192.033 C 153.452 192.289,153.200 192.823,153.200 193.220 C 153.200 193.618,152.975 194.187,152.700 194.486 C 152.065 195.175,151.445 196.287,148.401 202.200 C 147.042 204.840,145.500 207.720,144.975 208.600 C 144.449 209.480,143.825 210.650,143.589 211.200 C 142.919 212.756,141.634 215.243,140.591 217.000 C 140.069 217.880,139.452 218.960,139.222 219.400 C 138.991 219.840,138.642 220.470,138.446 220.800 C 138.250 221.130,137.574 222.440,136.945 223.712 C 135.121 227.394,134.693 228.187,134.416 228.400 C 134.272 228.510,133.918 229.185,133.629 229.900 C 133.340 230.615,132.945 231.200,132.751 231.200 C 132.558 231.200,132.390 231.515,132.377 231.900 C 132.364 232.285,131.841 233.500,131.214 234.600 C 130.587 235.700,129.503 237.723,128.805 239.096 C 128.108 240.468,127.372 241.694,127.169 241.819 C 126.966 241.945,126.800 242.320,126.800 242.654 C 126.800 243.314,123.608 248.917,123.108 249.133 C 122.938 249.207,122.797 249.477,122.793 249.733 C 122.782 250.547,117.941 259.600,117.518 259.600 C 117.343 259.600,117.198 259.825,117.196 260.100 C 117.192 260.530,115.451 264.125,113.029 268.700 C 112.651 269.415,112.175 270.000,111.971 270.000 C 111.767 270.000,111.600 270.264,111.600 270.588 C 111.600 271.134,110.416 273.821,109.567 275.200 C 109.364 275.530,109.012 276.233,108.785 276.763 C 108.558 277.292,107.838 278.516,107.186 279.483 C 106.534 280.449,106.000 281.396,106.000 281.587 C 106.000 281.982,104.611 284.682,102.597 288.200 C 101.842 289.520,100.273 292.458,99.112 294.728 C 96.269 300.286,95.938 300.879,94.932 302.233 L 94.064 303.400 72.225 303.510 C 46.098 303.642,47.470 303.932,50.258 298.855 C 51.059 297.395,51.971 295.709,52.283 295.108 C 52.595 294.507,53.005 293.920,53.195 293.803 C 53.384 293.686,53.657 293.053,53.801 292.395 C 53.945 291.738,54.210 291.200,54.388 291.200 C 54.567 291.200,54.823 290.763,54.957 290.228 C 55.091 289.693,55.426 289.012,55.701 288.714 C 56.300 288.063,56.934 286.939,59.376 282.200 C 60.396 280.220,61.578 278.060,62.001 277.400 C 62.425 276.740,63.255 275.210,63.845 274.000 C 65.388 270.839,68.077 266.223,68.467 266.067 C 68.650 265.993,68.803 265.723,68.807 265.467 C 68.810 265.210,69.340 264.010,69.984 262.800 C 70.628 261.590,71.434 260.060,71.776 259.400 C 72.118 258.740,72.753 257.660,73.186 257.000 C 73.620 256.340,74.608 254.540,75.382 253.000 C 76.156 251.460,77.412 249.120,78.174 247.800 C 78.935 246.480,80.147 244.185,80.867 242.700 C 81.587 241.215,82.317 240.000,82.488 240.000 C 82.660 240.000,82.800 239.771,82.800 239.491 C 82.800 239.211,83.430 238.025,84.200 236.856 C 84.970 235.687,85.600 234.582,85.600 234.402 C 85.600 233.785,87.713 230.000,88.057 230.000 C 88.246 230.000,88.400 229.668,88.400 229.261 C 88.400 228.855,88.760 228.107,89.200 227.600 C 89.640 227.093,90.000 226.457,90.000 226.188 C 90.000 225.918,90.270 225.474,90.600 225.200 C 90.930 224.926,91.200 224.444,91.200 224.129 C 91.200 223.672,93.530 219.346,96.008 215.200 C 96.205 214.870,96.918 213.520,97.591 212.200 C 98.265 210.880,99.169 209.260,99.600 208.600 C 100.031 207.940,100.958 206.239,101.658 204.821 C 102.359 203.402,103.672 200.972,104.575 199.421 C 105.477 197.869,106.720 195.610,107.336 194.400 C 109.194 190.750,110.848 187.837,111.440 187.169 C 111.748 186.821,112.000 186.405,112.000 186.244 C 112.000 185.678,114.695 180.491,115.481 179.543 C 115.729 179.244,117.047 176.840,118.411 174.200 C 119.775 171.560,121.411 168.626,122.046 167.680 C 122.681 166.734,123.200 165.774,123.200 165.547 C 123.200 165.179,125.380 161.145,126.414 159.600 C 126.635 159.270,127.080 158.427,127.402 157.727 C 127.724 157.027,128.171 156.342,128.394 156.204 C 128.617 156.066,128.800 155.616,128.800 155.205 C 128.800 154.794,129.070 154.187,129.400 153.857 C 129.730 153.527,130.000 153.137,130.000 152.989 C 130.000 152.842,130.901 151.189,132.003 149.318 C 133.105 147.446,134.113 145.491,134.242 144.973 C 134.372 144.456,134.731 143.823,135.039 143.567 C 135.348 143.311,135.600 142.867,135.600 142.580 C 135.600 142.292,135.825 141.813,136.100 141.514 C 136.706 140.856,137.368 139.690,139.795 135.000 C 142.445 129.879,142.936 129.041,143.500 128.680 C 143.775 128.504,144.003 128.144,144.007 127.880 C 144.010 127.616,144.543 126.410,145.191 125.200 C 145.838 123.990,146.548 122.604,146.767 122.119 C 146.986 121.635,147.660 120.465,148.265 119.519 C 148.870 118.574,150.147 116.270,151.103 114.400 C 152.059 112.530,153.265 110.280,153.783 109.400 C 154.300 108.520,155.213 106.810,155.812 105.600 C 156.410 104.390,157.373 102.680,157.950 101.800 C 158.528 100.920,159.535 99.120,160.188 97.800 C 160.840 96.480,161.515 95.340,161.687 95.267 C 161.859 95.193,162.000 94.829,162.000 94.458 C 162.000 94.086,162.585 92.885,163.300 91.788 C 164.015 90.692,165.108 88.806,165.728 87.597 C 167.662 83.831,169.258 81.026,169.840 80.369 C 170.148 80.021,170.400 79.449,170.400 79.097 C 170.400 78.745,170.625 78.215,170.900 77.920 C 171.175 77.624,172.199 75.811,173.175 73.891 C 174.151 71.971,175.082 70.400,175.244 70.400 C 175.405 70.400,175.744 69.776,175.995 69.014 C 176.247 68.252,176.963 67.082,177.587 66.414 L 178.721 65.200 200.775 65.200 C 220.880 65.200,222.920 65.260,223.869 65.882 " stroke="none" fill="#fbfbfb" fill-rule="evenodd"></path><path id="path2" d="M219.933 272.000 C 181.287 272.110,149.591 272.290,149.498 272.400 C 149.213 272.738,147.600 276.236,147.600 276.516 C 147.600 276.661,146.340 279.386,144.800 282.572 C 143.260 285.758,142.000 288.506,142.000 288.679 C 142.000 288.852,141.117 290.795,140.038 292.997 C 137.195 298.797,136.278 301.104,136.542 301.792 C 136.929 302.801,306.808 302.709,306.783 301.700 C 306.773 301.315,306.331 300.280,305.800 299.400 C 305.270 298.520,303.726 295.640,302.370 293.000 C 301.014 290.360,299.769 288.020,299.603 287.800 C 299.438 287.580,298.125 285.150,296.686 282.400 C 292.572 274.538,291.031 271.862,290.600 271.830 C 290.380 271.813,258.580 271.890,219.933 272.000 " stroke="none" fill="#ec752e" fill-rule="evenodd"></path><path id="path3" d="M289.200 270.800 C 288.819 271.046,263.412 271.190,219.474 271.194 C 172.759 271.198,150.097 271.334,149.576 271.613 C 148.949 271.948,146.000 277.419,146.000 278.247 C 146.000 278.373,145.029 280.484,143.843 282.938 C 142.657 285.392,141.233 288.480,140.680 289.800 C 140.126 291.120,138.757 294.074,137.637 296.365 C 135.597 300.535,135.164 302.287,136.100 302.584 C 136.375 302.671,184.930 302.800,244.000 302.871 C 303.070 302.942,340.150 302.890,326.400 302.756 C 312.650 302.622,264.359 302.487,219.087 302.456 C 145.846 302.406,136.749 302.333,136.542 301.792 C 136.278 301.104,137.195 298.797,140.038 292.997 C 141.117 290.795,142.000 288.852,142.000 288.679 C 142.000 288.506,143.260 285.758,144.800 282.572 C 146.340 279.386,147.600 276.675,147.600 276.547 C 147.600 275.609,149.517 272.409,150.187 272.229 C 150.634 272.109,182.275 272.008,220.500 272.005 C 289.732 272.000,290.000 271.997,290.000 271.200 C 290.000 270.282,290.001 270.283,289.200 270.800 M61.700 303.100 C 67.365 303.162,76.635 303.162,82.300 303.100 C 87.965 303.037,83.330 302.986,72.000 302.986 C 60.670 302.986,56.035 303.037,61.700 303.100 " stroke="none" fill="#c9b1a2" fill-rule="evenodd"></path><path id="path4" d="M178.281 67.351 C 177.796 67.874,177.026 68.999,176.568 69.851 C 174.043 74.556,172.502 77.389,170.614 80.800 C 169.457 82.890,167.195 87.030,165.587 90.000 C 163.979 92.970,162.000 96.570,161.189 98.000 C 160.379 99.430,158.672 102.580,157.396 105.000 C 156.121 107.420,154.682 110.030,154.199 110.800 C 153.717 111.570,152.467 113.820,151.423 115.800 C 150.379 117.780,149.072 120.210,148.520 121.200 C 147.967 122.190,147.049 123.900,146.480 125.000 C 145.912 126.100,145.058 127.630,144.584 128.400 C 144.111 129.170,142.596 131.960,141.220 134.600 C 139.843 137.240,138.578 139.580,138.409 139.800 C 138.239 140.020,137.377 141.550,136.494 143.200 C 135.610 144.850,133.832 148.123,132.543 150.473 C 130.212 154.724,128.823 157.266,125.003 164.276 C 123.901 166.298,121.478 170.708,119.617 174.076 C 117.757 177.444,115.272 182.000,114.095 184.200 C 111.337 189.356,109.571 192.588,107.207 196.800 C 106.158 198.670,104.350 201.993,103.189 204.184 C 102.029 206.376,100.567 209.039,99.940 210.102 C 99.313 211.165,98.800 212.135,98.800 212.257 C 98.800 212.379,97.845 214.126,96.678 216.140 C 95.511 218.153,93.955 220.970,93.219 222.400 C 92.483 223.830,91.217 226.170,90.405 227.600 C 89.593 229.030,88.047 231.820,86.970 233.800 C 85.892 235.780,84.803 237.760,84.548 238.200 C 84.294 238.640,83.582 239.990,82.966 241.200 C 82.350 242.410,81.017 244.840,80.005 246.600 C 78.992 248.360,77.385 251.330,76.433 253.200 C 75.481 255.070,74.485 256.870,74.220 257.200 C 73.954 257.530,72.957 259.330,72.003 261.200 C 71.049 263.070,69.879 265.230,69.403 266.000 C 68.926 266.770,67.411 269.536,66.036 272.147 C 64.660 274.758,63.009 277.748,62.367 278.792 C 61.725 279.835,61.200 280.789,61.200 280.913 C 61.200 281.036,60.337 282.636,59.283 284.468 C 58.229 286.301,56.676 289.150,55.831 290.800 C 54.987 292.450,53.587 295.022,52.721 296.517 C 50.451 300.431,49.937 301.777,50.500 302.340 C 50.973 302.813,91.285 303.035,93.002 302.574 C 93.863 302.342,94.389 301.497,98.090 294.400 C 99.409 291.870,100.626 289.620,100.795 289.400 C 100.963 289.180,102.217 286.840,103.581 284.200 C 104.945 281.560,106.227 279.130,106.431 278.800 C 106.635 278.470,108.175 275.590,109.854 272.400 C 115.144 262.351,121.192 250.974,123.995 245.800 C 127.143 239.988,128.607 237.251,130.184 234.230 C 131.111 232.453,132.596 229.650,133.483 228.000 C 134.371 226.350,135.957 223.380,137.007 221.400 C 138.057 219.420,140.266 215.280,141.916 212.200 C 143.566 209.120,145.581 205.340,146.394 203.800 C 147.207 202.260,148.689 199.470,149.688 197.600 C 150.687 195.730,152.220 192.850,153.095 191.200 C 153.970 189.550,155.315 187.030,156.084 185.600 C 158.022 181.995,161.453 175.545,163.212 172.200 C 164.021 170.660,166.084 166.790,167.794 163.600 C 169.505 160.410,171.799 156.090,172.893 154.000 C 173.986 151.910,175.202 149.660,175.596 149.000 C 175.990 148.340,177.384 145.730,178.695 143.200 C 180.006 140.670,181.621 137.610,182.283 136.400 C 182.946 135.190,184.485 132.310,185.704 130.000 C 186.924 127.690,188.498 124.720,189.203 123.400 C 189.908 122.080,191.345 119.380,192.397 117.400 C 201.556 100.163,200.225 100.946,204.982 110.000 C 206.427 112.750,208.299 116.260,209.142 117.800 C 210.515 120.309,211.857 122.826,215.811 130.309 C 216.477 131.569,218.259 134.940,219.770 137.800 C 221.282 140.660,222.967 143.810,223.515 144.800 C 224.692 146.925,230.695 158.221,237.546 171.200 C 239.114 174.170,240.568 176.870,240.777 177.200 C 240.986 177.530,242.136 179.690,243.334 182.000 C 244.531 184.310,246.995 188.990,248.809 192.400 C 250.624 195.810,252.911 200.130,253.893 202.000 C 254.874 203.870,255.996 205.940,256.385 206.600 C 256.775 207.260,257.995 209.510,259.096 211.600 C 260.198 213.690,261.688 216.480,262.407 217.800 C 263.126 219.120,264.500 221.730,265.461 223.600 C 266.421 225.470,267.387 227.270,267.606 227.600 C 267.969 228.148,270.650 233.174,275.605 242.600 C 276.646 244.580,278.752 248.540,280.285 251.400 C 281.818 254.260,284.555 259.390,286.368 262.800 C 288.181 266.210,289.829 269.171,290.032 269.380 C 290.234 269.589,290.400 270.163,290.400 270.656 C 290.400 271.149,290.580 271.664,290.800 271.800 C 291.528 272.250,291.216 271.020,289.986 268.594 C 287.631 263.947,281.161 251.698,279.320 248.400 C 278.767 247.410,277.527 245.070,276.563 243.200 C 275.599 241.330,274.090 238.540,273.209 237.000 C 272.328 235.460,271.423 233.750,271.197 233.200 C 270.728 232.058,269.659 230.039,268.444 228.000 C 267.986 227.230,266.981 225.340,266.212 223.800 C 265.443 222.260,264.196 219.920,263.442 218.600 C 262.687 217.280,261.434 214.940,260.657 213.400 C 259.879 211.860,258.623 209.520,257.865 208.200 C 257.107 206.880,255.561 204.000,254.429 201.800 C 253.298 199.600,251.393 196.000,250.197 193.800 C 249.001 191.600,247.752 189.260,247.421 188.600 C 247.090 187.940,245.571 185.060,244.044 182.200 C 242.518 179.340,240.339 175.200,239.201 173.000 C 238.064 170.800,236.800 168.460,236.391 167.800 C 235.983 167.140,234.734 164.800,233.616 162.600 C 232.499 160.400,231.401 158.330,231.177 158.000 C 230.953 157.670,229.547 155.060,228.053 152.200 C 223.469 143.429,220.911 138.625,219.728 136.568 C 219.105 135.486,217.815 133.070,216.862 131.200 C 215.908 129.330,214.715 127.080,214.210 126.200 C 213.348 124.697,212.451 122.994,207.574 113.600 C 206.489 111.510,205.196 109.100,204.700 108.245 C 204.205 107.390,203.339 105.873,202.776 104.874 C 200.896 101.537,200.064 101.654,198.053 105.539 C 197.410 106.783,195.781 109.870,194.434 112.400 C 193.087 114.930,191.708 117.540,191.371 118.200 C 191.033 118.860,189.786 121.200,188.601 123.400 C 184.172 131.617,181.905 135.887,178.089 143.200 C 176.654 145.950,175.090 148.830,174.612 149.600 C 174.135 150.370,172.949 152.620,171.977 154.600 C 171.006 156.580,169.825 158.777,169.355 159.483 C 168.884 160.189,167.555 162.619,166.402 164.883 C 164.596 168.427,162.193 172.991,159.282 178.400 C 158.868 179.170,157.489 181.780,156.217 184.200 C 154.945 186.620,153.493 189.320,152.989 190.200 C 152.059 191.823,149.572 196.531,145.793 203.822 C 144.647 206.034,143.271 208.554,142.735 209.422 C 142.200 210.290,140.908 212.710,139.864 214.800 C 138.819 216.890,137.645 219.140,137.255 219.800 C 136.608 220.893,133.133 227.416,129.691 234.000 C 128.944 235.430,127.882 237.410,127.333 238.400 C 126.783 239.390,125.247 242.270,123.919 244.800 C 122.591 247.330,121.366 249.580,121.197 249.800 C 120.874 250.222,117.274 257.072,113.841 263.800 C 112.718 266.000,111.676 267.894,111.525 268.008 C 111.374 268.123,111.051 268.663,110.807 269.208 C 110.563 269.754,109.337 272.127,108.082 274.483 C 106.827 276.839,104.692 280.889,103.339 283.483 C 101.985 286.077,100.420 289.010,99.862 290.000 C 99.303 290.990,98.047 293.344,97.071 295.232 C 94.470 300.262,93.309 301.958,92.300 302.203 C 89.538 302.873,51.410 302.195,51.271 301.474 C 51.121 300.697,52.728 297.223,54.450 294.600 C 55.027 293.720,56.003 291.929,56.617 290.620 C 57.232 289.310,58.500 286.944,59.436 285.361 C 60.372 283.778,61.619 281.519,62.207 280.342 C 62.795 279.164,63.696 277.480,64.209 276.600 C 64.723 275.720,65.858 273.650,66.732 272.000 C 67.606 270.350,69.195 267.470,70.265 265.600 C 71.334 263.730,72.707 261.210,73.317 260.000 C 73.926 258.790,74.864 257.080,75.401 256.200 C 75.937 255.320,77.142 253.070,78.078 251.200 C 79.014 249.330,79.899 247.710,80.046 247.600 C 80.193 247.490,81.439 245.240,82.815 242.600 C 84.191 239.960,85.516 237.530,85.759 237.200 C 86.300 236.464,86.606 235.915,89.114 231.165 C 90.208 229.094,91.471 226.770,91.921 226.000 C 92.371 225.230,93.246 223.610,93.866 222.400 C 94.486 221.190,95.965 218.501,97.153 216.424 C 98.340 214.347,99.655 211.917,100.075 211.024 C 100.495 210.131,101.180 208.860,101.599 208.200 C 102.273 207.136,102.912 205.980,105.355 201.400 C 105.707 200.740,105.996 199.990,105.998 199.733 C 105.999 199.477,106.142 199.207,106.315 199.133 C 106.713 198.965,108.138 196.498,110.783 191.400 C 111.925 189.200,113.081 187.130,113.354 186.800 C 113.626 186.470,114.626 184.670,115.576 182.800 C 116.526 180.930,117.725 178.680,118.240 177.800 C 118.755 176.920,119.729 175.120,120.405 173.800 C 121.080 172.480,121.793 171.130,121.988 170.800 C 123.317 168.557,125.358 164.929,126.827 162.200 C 127.774 160.440,128.955 158.280,129.451 157.400 C 129.947 156.520,130.826 154.838,131.406 153.662 C 131.985 152.486,133.318 150.056,134.368 148.262 C 135.418 146.468,136.769 144.010,137.370 142.800 C 137.972 141.590,138.807 140.060,139.227 139.400 C 139.647 138.740,140.116 137.930,140.268 137.600 C 140.561 136.966,144.722 129.316,146.251 126.600 C 146.747 125.720,147.706 123.920,148.383 122.600 C 149.060 121.280,149.996 119.570,150.463 118.800 C 150.930 118.030,152.105 115.878,153.075 114.019 C 154.044 112.159,154.993 110.449,155.184 110.219 C 155.375 109.988,156.636 107.667,157.986 105.059 C 159.337 102.452,160.886 99.614,161.429 98.754 C 161.972 97.894,163.245 95.617,164.259 93.695 C 165.272 91.773,166.545 89.390,167.087 88.400 C 167.629 87.410,168.893 85.070,169.895 83.200 C 170.898 81.330,172.115 79.170,172.600 78.400 C 173.086 77.630,173.964 76.010,174.551 74.800 C 175.139 73.590,176.063 71.880,176.606 71.000 C 177.148 70.120,177.770 68.992,177.989 68.493 C 178.717 66.828,179.598 66.768,201.600 66.887 C 225.468 67.015,223.368 66.681,225.223 70.648 C 225.868 72.028,226.961 74.112,227.652 75.279 C 228.901 77.388,229.939 79.282,233.197 85.400 C 234.134 87.160,235.033 88.780,235.196 89.000 C 235.358 89.220,236.265 90.840,237.211 92.600 C 238.157 94.360,239.340 96.520,239.840 97.400 C 240.340 98.280,241.337 100.170,242.055 101.600 C 242.773 103.030,244.121 105.486,245.049 107.058 C 245.978 108.631,247.212 110.881,247.792 112.058 C 248.373 113.236,249.252 114.920,249.745 115.800 C 250.239 116.680,251.467 118.930,252.474 120.800 C 253.481 122.670,254.678 124.830,255.135 125.600 C 255.592 126.370,256.394 127.810,256.918 128.800 C 259.465 133.613,261.329 137.038,261.600 137.400 C 261.764 137.620,262.675 139.330,263.623 141.200 C 264.571 143.070,265.800 145.320,266.353 146.200 C 266.906 147.080,268.104 149.240,269.015 151.000 C 269.927 152.760,271.233 155.140,271.919 156.289 C 272.605 157.437,273.631 159.327,274.199 160.489 C 274.768 161.650,275.393 162.870,275.589 163.200 C 277.107 165.764,278.965 169.098,280.381 171.800 C 281.303 173.560,282.477 175.720,282.991 176.600 C 283.504 177.480,284.399 179.150,284.979 180.311 C 285.559 181.473,286.593 183.363,287.275 184.511 C 287.957 185.660,289.586 188.669,290.894 191.198 C 292.201 193.728,293.396 195.888,293.548 195.998 C 293.701 196.109,294.405 197.370,295.114 198.800 C 295.822 200.230,297.015 202.480,297.765 203.800 C 298.515 205.120,299.636 207.190,300.256 208.400 C 300.876 209.610,302.172 211.950,303.135 213.600 C 304.098 215.250,305.699 218.220,306.693 220.200 C 307.687 222.180,308.613 223.890,308.750 224.000 C 309.053 224.242,309.743 225.486,312.190 230.200 C 313.217 232.180,314.512 234.610,315.066 235.600 C 315.620 236.590,316.893 238.930,317.895 240.800 C 318.898 242.670,320.115 244.830,320.600 245.600 C 321.086 246.370,321.990 248.080,322.609 249.400 C 323.229 250.720,324.190 252.520,324.746 253.400 C 325.301 254.280,326.538 256.501,327.495 258.335 C 328.451 260.169,329.683 262.381,330.232 263.251 C 330.781 264.120,332.067 266.490,333.089 268.516 C 334.112 270.542,335.050 272.290,335.174 272.400 C 335.438 272.634,336.031 273.708,338.597 278.600 C 339.636 280.580,341.006 282.974,341.643 283.920 C 342.279 284.866,342.800 285.805,342.800 286.006 C 342.800 286.361,346.973 294.197,347.590 295.000 C 348.428 296.091,350.800 301.013,350.800 301.660 C 350.800 302.506,310.004 302.838,307.826 302.010 C 307.262 301.795,306.800 301.776,306.800 301.967 C 306.800 302.158,307.085 302.424,307.433 302.557 C 308.425 302.938,350.535 302.829,351.143 302.444 C 351.858 301.991,351.593 301.239,349.128 296.725 C 348.010 294.676,346.413 291.737,345.580 290.193 C 344.747 288.649,343.618 286.579,343.071 285.593 C 342.524 284.607,341.239 282.216,340.215 280.279 C 339.192 278.342,337.821 275.853,337.169 274.748 C 336.517 273.642,335.239 271.357,334.328 269.669 C 331.883 265.136,331.167 263.825,328.610 259.200 C 324.508 251.782,322.400 247.884,322.400 247.719 C 322.400 247.630,321.410 245.843,320.200 243.747 C 318.990 241.651,318.000 239.868,318.000 239.783 C 318.000 239.699,316.740 237.379,315.200 234.628 C 313.660 231.877,312.400 229.544,312.400 229.444 C 312.400 229.345,311.537 227.764,310.482 225.932 C 309.427 224.099,307.785 221.070,306.833 219.200 C 305.881 217.330,304.885 215.530,304.620 215.200 C 304.354 214.870,303.356 213.070,302.400 211.200 C 301.445 209.330,300.343 207.260,299.951 206.600 C 299.559 205.940,298.714 204.410,298.072 203.200 C 296.852 200.897,295.970 199.273,292.253 192.486 C 291.014 190.223,290.000 188.305,290.000 188.223 C 290.000 188.142,289.100 186.546,288.000 184.677 C 286.900 182.808,286.000 181.179,286.000 181.057 C 286.000 180.935,285.471 179.937,284.824 178.840 C 284.177 177.743,282.622 174.900,281.370 172.522 C 280.117 170.145,278.513 167.210,277.804 166.000 C 277.096 164.790,275.615 162.090,274.514 160.000 C 273.412 157.910,271.496 154.355,270.256 152.100 C 264.929 142.419,263.600 139.962,263.600 139.798 C 263.600 139.703,262.733 138.134,261.674 136.312 C 260.614 134.491,259.059 131.650,258.217 130.000 C 257.375 128.350,256.527 126.796,256.332 126.546 C 256.137 126.296,255.241 124.692,254.340 122.982 C 253.439 121.272,251.689 118.024,250.451 115.764 C 246.055 107.738,244.980 105.759,243.128 102.274 C 242.097 100.334,241.088 98.534,240.884 98.274 C 240.681 98.013,239.827 96.450,238.987 94.800 C 238.148 93.150,236.537 90.180,235.408 88.200 C 234.280 86.220,232.755 83.430,232.019 82.000 C 231.283 80.570,230.013 78.230,229.196 76.800 C 228.379 75.370,226.964 72.773,226.053 71.029 C 223.342 65.842,226.346 66.400,201.119 66.400 L 179.162 66.400 178.281 67.351 " stroke="none" fill="#8c8c8c" fill-rule="evenodd"></path><path id="path5" d="M190.072 65.900 C 195.941 65.962,205.661 65.962,211.672 65.900 C 217.682 65.838,212.880 65.787,201.000 65.786 C 189.120 65.786,184.202 65.837,190.072 65.900 M225.203 68.490 C 225.201 68.650,225.559 69.370,225.999 70.090 C 226.438 70.811,226.796 71.220,226.796 71.000 C 226.795 70.780,226.437 70.060,226.000 69.400 C 225.563 68.740,225.204 68.331,225.203 68.490 M174.581 72.030 C 173.637 73.526,172.806 75.275,173.266 74.800 C 173.703 74.348,175.978 70.400,175.801 70.400 C 175.696 70.400,175.147 71.134,174.581 72.030 M157.828 102.661 C 157.256 103.684,156.852 104.585,156.929 104.663 C 157.007 104.740,157.561 103.903,158.160 102.802 C 158.760 101.701,159.164 100.800,159.059 100.800 C 158.954 100.800,158.400 101.637,157.828 102.661 M147.479 121.574 C 147.106 122.206,146.801 122.876,146.801 123.062 C 146.802 123.248,147.172 122.795,147.623 122.055 C 148.074 121.315,148.379 120.646,148.301 120.567 C 148.222 120.489,147.852 120.942,147.479 121.574 M212.000 124.689 C 212.000 124.921,212.371 125.536,212.824 126.056 L 213.647 127.000 212.945 125.800 C 212.020 124.221,212.000 124.197,212.000 124.689 M187.094 128.103 L 186.388 129.400 187.194 128.456 C 187.880 127.652,188.246 126.794,187.900 126.803 C 187.845 126.804,187.482 127.389,187.094 128.103 M257.203 127.290 C 257.201 127.450,257.559 128.170,257.999 128.890 C 258.438 129.611,258.796 130.020,258.796 129.800 C 258.795 129.580,258.437 128.860,258.000 128.200 C 257.563 127.540,257.204 127.131,257.203 127.290 M221.600 142.689 C 221.600 142.921,221.971 143.536,222.424 144.056 L 223.247 145.000 222.545 143.800 C 221.620 142.221,221.600 142.197,221.600 142.689 M130.679 152.374 C 130.306 153.006,130.001 153.676,130.001 153.862 C 130.002 154.048,130.372 153.595,130.823 152.855 C 131.274 152.115,131.579 151.446,131.501 151.367 C 131.422 151.289,131.052 151.742,130.679 152.374 M273.604 157.400 C 273.605 157.620,273.963 158.340,274.400 159.000 C 275.436 160.564,275.437 160.008,274.401 158.310 C 273.962 157.589,273.604 157.180,273.604 157.400 M238.404 174.200 C 238.405 174.420,238.763 175.140,239.200 175.800 C 240.236 177.364,240.237 176.808,239.201 175.110 C 238.762 174.389,238.404 173.980,238.404 174.200 M284.255 177.000 C 285.180 178.579,285.200 178.603,285.200 178.111 C 285.200 177.879,284.829 177.264,284.376 176.744 L 283.553 175.800 284.255 177.000 M160.694 177.703 L 159.988 179.000 160.794 178.056 C 161.480 177.252,161.846 176.394,161.500 176.403 C 161.445 176.404,161.082 176.989,160.694 177.703 M290.404 188.200 C 290.405 188.420,290.763 189.140,291.200 189.800 C 292.236 191.364,292.237 190.808,291.201 189.110 C 290.762 188.389,290.404 187.980,290.404 188.200 M109.879 190.374 C 109.506 191.006,109.201 191.676,109.201 191.862 C 109.202 192.048,109.572 191.595,110.023 190.855 C 110.474 190.115,110.779 189.446,110.701 189.367 C 110.622 189.289,110.252 189.742,109.879 190.374 M299.455 205.000 C 300.380 206.579,300.400 206.603,300.400 206.111 C 300.400 205.879,300.029 205.264,299.576 204.744 L 298.753 203.800 299.455 205.000 M308.404 221.400 C 308.405 221.620,308.763 222.340,309.200 223.000 C 310.236 224.564,310.237 224.008,309.201 222.310 C 308.762 221.589,308.404 221.180,308.404 221.400 M264.804 223.800 C 264.805 224.020,265.163 224.740,265.600 225.400 C 266.636 226.964,266.637 226.408,265.601 224.710 C 265.162 223.989,264.804 223.580,264.804 223.800 M134.294 227.303 L 133.588 228.600 134.394 227.656 C 135.080 226.852,135.446 225.994,135.100 226.003 C 135.045 226.004,134.682 226.589,134.294 227.303 M129.879 235.574 C 129.506 236.206,129.201 236.876,129.201 237.062 C 129.202 237.248,129.572 236.795,130.023 236.055 C 130.474 235.315,130.779 234.646,130.701 234.567 C 130.622 234.489,130.252 234.942,129.879 235.574 M85.053 236.100 L 84.333 237.400 85.158 236.400 C 85.889 235.513,86.214 234.800,85.886 234.800 C 85.824 234.800,85.449 235.385,85.053 236.100 M316.889 236.972 C 317.586 238.185,318.213 239.120,318.284 239.050 C 318.464 238.870,316.413 235.255,315.979 234.987 C 315.783 234.866,316.192 235.759,316.889 236.972 M325.560 253.000 C 326.234 254.305,326.788 255.028,326.785 254.600 C 326.783 254.380,326.414 253.750,325.964 253.200 C 325.421 252.536,325.285 252.469,325.560 253.000 M72.892 258.092 C 72.399 258.993,72.055 259.788,72.127 259.860 C 72.199 259.932,72.668 259.261,73.169 258.369 C 73.671 257.477,74.015 256.682,73.935 256.601 C 73.855 256.521,73.385 257.192,72.892 258.092 M332.004 264.600 C 332.005 264.820,332.363 265.540,332.800 266.200 C 333.836 267.764,333.837 267.208,332.801 265.510 C 332.362 264.789,332.004 264.380,332.004 264.600 M334.815 269.800 C 334.817 270.020,335.186 270.650,335.636 271.200 C 336.179 271.864,336.315 271.931,336.040 271.400 C 335.366 270.095,334.812 269.372,334.815 269.800 " stroke="none" fill="#c4c4c4" fill-rule="evenodd"></path><path id="path6" d="M190.900 66.300 C 196.565 66.362,205.835 66.362,211.500 66.300 C 217.165 66.237,212.530 66.186,201.200 66.186 C 189.870 66.186,185.235 66.237,190.900 66.300 M178.111 66.900 C 177.430 67.781,177.117 68.630,177.770 67.824 C 178.117 67.397,178.625 66.904,178.900 66.730 C 179.227 66.522,179.244 66.410,178.949 66.406 C 178.701 66.403,178.324 66.625,178.111 66.900 M224.804 68.600 C 224.805 68.820,225.163 69.540,225.600 70.200 C 226.636 71.764,226.637 71.208,225.601 69.510 C 225.162 68.789,224.804 68.380,224.804 68.600 M174.867 72.267 C 174.158 73.501,173.638 74.571,173.711 74.644 C 173.784 74.718,174.424 73.768,175.133 72.533 C 175.842 71.299,176.362 70.229,176.289 70.156 C 176.216 70.082,175.576 71.032,174.867 72.267 M232.000 82.000 C 232.449 82.880,232.906 83.600,233.016 83.600 C 233.126 83.600,232.849 82.880,232.400 82.000 C 231.951 81.120,231.494 80.400,231.384 80.400 C 231.274 80.400,231.551 81.120,232.000 82.000 M233.204 84.200 C 233.205 84.420,233.563 85.140,234.000 85.800 C 235.036 87.364,235.037 86.808,234.001 85.110 C 233.562 84.389,233.204 83.980,233.204 84.200 M166.600 87.600 C 166.259 88.260,166.069 88.800,166.179 88.800 C 166.289 88.800,166.659 88.260,167.000 87.600 C 167.341 86.940,167.531 86.400,167.421 86.400 C 167.311 86.400,166.941 86.940,166.600 87.600 M165.000 90.400 C 164.659 91.060,164.469 91.600,164.579 91.600 C 164.689 91.600,165.059 91.060,165.400 90.400 C 165.741 89.740,165.931 89.200,165.821 89.200 C 165.711 89.200,165.341 89.740,165.000 90.400 M162.400 95.200 C 161.951 96.080,161.674 96.800,161.784 96.800 C 161.894 96.800,162.351 96.080,162.800 95.200 C 163.249 94.320,163.526 93.600,163.416 93.600 C 163.306 93.600,162.849 94.320,162.400 95.200 M239.986 96.773 C 240.427 97.638,240.961 98.452,241.171 98.582 C 241.382 98.712,241.099 98.005,240.543 97.009 C 239.301 94.787,238.882 94.609,239.986 96.773 M158.000 103.200 C 157.551 104.080,157.274 104.800,157.384 104.800 C 157.494 104.800,157.951 104.080,158.400 103.200 C 158.849 102.320,159.126 101.600,159.016 101.600 C 158.906 101.600,158.449 102.320,158.000 103.200 M199.762 104.100 L 199.000 105.000 199.892 104.245 C 200.771 103.501,200.795 103.504,201.615 104.445 L 202.447 105.400 201.778 104.300 C 200.966 102.967,200.740 102.944,199.762 104.100 M194.400 113.600 C 193.951 114.480,193.674 115.200,193.784 115.200 C 193.894 115.200,194.351 114.480,194.800 113.600 C 195.249 112.720,195.526 112.000,195.416 112.000 C 195.306 112.000,194.849 112.720,194.400 113.600 M249.600 114.400 C 250.049 115.280,250.506 116.000,250.616 116.000 C 250.726 116.000,250.449 115.280,250.000 114.400 C 249.551 113.520,249.094 112.800,248.984 112.800 C 248.874 112.800,249.151 113.520,249.600 114.400 M192.253 117.700 L 191.533 119.000 192.358 118.000 C 193.089 117.113,193.414 116.400,193.086 116.400 C 193.024 116.400,192.649 116.985,192.253 117.700 M208.403 116.890 C 208.401 117.050,208.759 117.770,209.199 118.490 C 209.638 119.211,209.996 119.620,209.996 119.400 C 209.995 119.180,209.637 118.460,209.200 117.800 C 208.763 117.140,208.404 116.731,208.403 116.890 M210.800 121.353 C 210.800 121.782,211.990 124.000,212.221 124.000 C 212.331 124.000,212.123 123.415,211.759 122.700 C 211.017 121.240,210.800 120.936,210.800 121.353 M212.403 124.490 C 212.401 124.650,212.759 125.370,213.199 126.090 C 213.638 126.811,213.996 127.220,213.996 127.000 C 213.995 126.780,213.637 126.060,213.200 125.400 C 212.763 124.740,212.404 124.331,212.403 124.490 M187.212 127.040 C 186.517 128.273,186.012 129.345,186.091 129.424 C 186.169 129.503,186.823 128.494,187.544 127.183 C 188.265 125.873,188.769 124.800,188.665 124.800 C 188.561 124.800,187.907 125.808,187.212 127.040 M258.400 130.400 C 258.849 131.280,259.306 132.000,259.416 132.000 C 259.526 132.000,259.249 131.280,258.800 130.400 C 258.351 129.520,257.894 128.800,257.784 128.800 C 257.674 128.800,257.951 129.520,258.400 130.400 M141.078 134.205 C 140.712 134.972,140.495 135.600,140.596 135.600 C 140.870 135.600,142.084 133.151,141.901 132.968 C 141.814 132.881,141.444 133.438,141.078 134.205 M217.600 134.400 C 218.049 135.280,218.506 136.000,218.616 136.000 C 218.726 136.000,218.449 135.280,218.000 134.400 C 217.551 133.520,217.094 132.800,216.984 132.800 C 216.874 132.800,217.151 133.520,217.600 134.400 M138.293 139.300 C 136.887 141.731,136.240 143.063,136.691 142.600 C 137.235 142.040,139.701 137.600,139.467 137.600 C 139.362 137.600,138.834 138.365,138.293 139.300 M181.014 138.635 C 180.641 139.204,180.405 139.738,180.489 139.822 C 180.573 139.907,180.958 139.441,181.344 138.788 C 182.206 137.328,181.948 137.209,181.014 138.635 M222.004 142.600 C 222.005 142.820,222.363 143.540,222.800 144.200 C 223.836 145.764,223.837 145.208,222.801 143.510 C 222.362 142.789,222.004 142.380,222.004 142.600 M177.600 145.200 C 177.151 146.080,176.874 146.800,176.984 146.800 C 177.094 146.800,177.551 146.080,178.000 145.200 C 178.449 144.320,178.726 143.600,178.616 143.600 C 178.506 143.600,178.049 144.320,177.600 145.200 M266.991 146.200 C 267.825 147.740,268.691 149.180,268.916 149.400 C 269.141 149.620,268.643 148.540,267.809 147.000 C 266.975 145.460,266.109 144.020,265.884 143.800 C 265.659 143.580,266.157 144.660,266.991 146.200 M226.800 151.600 C 227.685 153.360,228.499 154.800,228.609 154.800 C 228.719 154.800,228.085 153.360,227.200 151.600 C 226.315 149.840,225.501 148.400,225.391 148.400 C 225.281 148.400,225.915 149.840,226.800 151.600 M128.832 156.668 C 128.156 157.916,127.666 158.999,127.742 159.075 C 127.818 159.152,128.458 158.131,129.164 156.807 C 129.870 155.483,130.360 154.400,130.254 154.400 C 130.147 154.400,129.507 155.421,128.832 156.668 M230.404 158.200 C 230.405 158.420,230.763 159.140,231.200 159.800 C 232.236 161.364,232.237 160.808,231.201 159.110 C 230.762 158.389,230.404 157.980,230.404 158.200 M276.400 163.600 C 276.849 164.480,277.306 165.200,277.416 165.200 C 277.526 165.200,277.249 164.480,276.800 163.600 C 276.351 162.720,275.894 162.000,275.784 162.000 C 275.674 162.000,275.951 162.720,276.400 163.600 M124.800 164.000 C 124.351 164.880,124.074 165.600,124.184 165.600 C 124.294 165.600,124.751 164.880,125.200 164.000 C 125.649 163.120,125.926 162.400,125.816 162.400 C 125.706 162.400,125.249 163.120,124.800 164.000 M234.401 165.706 C 234.400 166.103,236.823 170.400,237.048 170.400 C 237.143 170.400,236.930 169.838,236.575 169.152 C 235.587 167.240,234.403 165.364,234.401 165.706 M120.400 172.000 C 119.951 172.880,119.674 173.600,119.784 173.600 C 119.894 173.600,120.351 172.880,120.800 172.000 C 121.249 171.120,121.526 170.400,121.416 170.400 C 121.306 170.400,120.849 171.120,120.400 172.000 M282.045 173.804 C 282.441 174.838,284.546 178.387,284.683 178.250 C 284.767 178.166,284.269 177.130,283.576 175.948 C 282.342 173.846,281.736 172.997,282.045 173.804 M238.803 174.090 C 238.801 174.250,239.159 174.970,239.599 175.690 C 240.038 176.411,240.396 176.820,240.396 176.600 C 240.395 176.380,240.037 175.660,239.600 175.000 C 239.163 174.340,238.804 173.931,238.803 174.090 M159.400 179.200 C 159.059 179.860,158.869 180.400,158.979 180.400 C 159.089 180.400,159.459 179.860,159.800 179.200 C 160.141 178.540,160.331 178.000,160.221 178.000 C 160.111 178.000,159.741 178.540,159.400 179.200 M242.800 181.600 C 243.249 182.480,243.706 183.200,243.816 183.200 C 243.926 183.200,243.649 182.480,243.200 181.600 C 242.751 180.720,242.294 180.000,242.184 180.000 C 242.074 180.000,242.351 180.720,242.800 181.600 M112.257 187.009 C 111.701 188.005,111.418 188.712,111.629 188.582 C 112.048 188.323,113.723 185.200,113.442 185.200 C 113.347 185.200,112.813 186.014,112.257 187.009 M152.278 192.605 C 151.912 193.372,151.695 194.000,151.796 194.000 C 152.070 194.000,153.284 191.551,153.101 191.368 C 153.014 191.281,152.644 191.838,152.278 192.605 M108.581 193.637 C 108.229 194.318,108.012 194.945,108.099 195.032 C 108.186 195.119,108.556 194.562,108.922 193.795 C 109.744 192.070,109.459 191.938,108.581 193.637 M104.000 202.000 C 103.551 202.880,103.274 203.600,103.384 203.600 C 103.494 203.600,103.951 202.880,104.400 202.000 C 104.849 201.120,105.126 200.400,105.016 200.400 C 104.906 200.400,104.449 201.120,104.000 202.000 M298.400 203.889 C 298.400 204.121,298.771 204.736,299.224 205.256 L 300.047 206.200 299.345 205.000 C 298.420 203.421,298.400 203.397,298.400 203.889 M101.879 205.974 C 101.506 206.606,101.201 207.276,101.201 207.462 C 101.202 207.648,101.572 207.195,102.023 206.455 C 102.474 205.715,102.779 205.046,102.701 204.967 C 102.622 204.889,102.252 205.342,101.879 205.974 M100.499 208.500 C 99.936 209.206,98.744 211.600,98.956 211.600 C 99.052 211.600,99.584 210.790,100.138 209.800 C 101.135 208.016,101.268 207.536,100.499 208.500 M97.978 213.098 C 97.074 214.901,97.087 215.079,98.020 213.683 C 98.504 212.959,98.817 212.283,98.715 212.182 C 98.613 212.080,98.281 212.492,97.978 213.098 M261.256 216.383 C 261.977 217.694,262.631 218.703,262.709 218.624 C 262.882 218.451,260.404 214.000,260.135 214.000 C 260.031 214.000,260.535 215.073,261.256 216.383 M138.294 218.903 L 137.588 220.200 138.394 219.256 C 139.080 218.452,139.446 217.594,139.100 217.603 C 139.045 217.604,138.682 218.189,138.294 218.903 M135.478 224.205 C 135.112 224.972,134.895 225.600,134.996 225.600 C 135.270 225.600,136.484 223.151,136.301 222.968 C 136.214 222.881,135.844 223.438,135.478 224.205 M91.600 224.800 C 91.151 225.680,90.874 226.400,90.984 226.400 C 91.094 226.400,91.551 225.680,92.000 224.800 C 92.449 223.920,92.726 223.200,92.616 223.200 C 92.506 223.200,92.049 223.920,91.600 224.800 M269.200 231.200 C 269.649 232.080,270.106 232.800,270.216 232.800 C 270.326 232.800,270.049 232.080,269.600 231.200 C 269.151 230.320,268.694 229.600,268.584 229.600 C 268.474 229.600,268.751 230.320,269.200 231.200 M87.200 232.800 C 86.751 233.680,86.474 234.400,86.584 234.400 C 86.694 234.400,87.151 233.680,87.600 232.800 C 88.049 231.920,88.326 231.200,88.216 231.200 C 88.106 231.200,87.649 231.920,87.200 232.800 M315.000 234.400 C 315.341 235.060,315.711 235.600,315.821 235.600 C 315.931 235.600,315.741 235.060,315.400 234.400 C 315.059 233.740,314.689 233.200,314.579 233.200 C 314.469 233.200,314.659 233.740,315.000 234.400 M316.600 237.200 C 316.941 237.860,317.311 238.400,317.421 238.400 C 317.531 238.400,317.341 237.860,317.000 237.200 C 316.659 236.540,316.289 236.000,316.179 236.000 C 316.069 236.000,316.259 236.540,316.600 237.200 M82.678 241.005 C 82.312 241.772,82.095 242.400,82.196 242.400 C 82.470 242.400,83.684 239.951,83.501 239.768 C 83.414 239.681,83.044 240.238,82.678 241.005 M325.040 252.802 C 325.639 253.903,326.193 254.740,326.271 254.663 C 326.443 254.490,324.408 250.800,324.141 250.800 C 324.036 250.800,324.440 251.701,325.040 252.802 M284.451 259.800 C 285.591 262.000,286.699 263.980,286.913 264.200 C 287.459 264.762,283.727 257.513,282.985 256.572 C 282.651 256.147,283.310 257.600,284.451 259.800 M114.181 264.037 C 113.829 264.718,113.612 265.345,113.699 265.432 C 113.786 265.519,114.156 264.962,114.522 264.195 C 115.344 262.470,115.059 262.338,114.181 264.037 M287.200 265.089 C 287.200 265.321,287.571 265.936,288.024 266.456 L 288.847 267.400 288.145 266.200 C 287.220 264.621,287.200 264.597,287.200 265.089 M332.006 265.250 C 331.997 265.605,334.033 269.200,334.242 269.200 C 334.338 269.200,334.060 268.525,333.624 267.700 C 332.678 265.911,332.015 264.906,332.006 265.250 M288.801 267.824 C 288.801 268.056,289.064 268.596,289.387 269.024 C 289.710 269.451,290.005 270.250,290.042 270.800 C 290.101 271.682,290.129 271.699,290.276 270.946 C 290.368 270.476,290.075 269.486,289.623 268.746 C 289.172 268.006,288.802 267.591,288.801 267.824 M107.479 276.774 C 107.106 277.406,106.801 278.076,106.801 278.262 C 106.802 278.448,107.172 277.995,107.623 277.255 C 108.074 276.515,108.379 275.846,108.301 275.767 C 108.222 275.689,107.852 276.142,107.479 276.774 M63.014 277.035 C 62.641 277.604,62.405 278.138,62.489 278.222 C 62.573 278.307,62.958 277.841,63.344 277.188 C 64.206 275.728,63.948 275.609,63.014 277.035 M102.278 286.605 C 101.912 287.372,101.695 288.000,101.796 288.000 C 102.070 288.000,103.284 285.551,103.101 285.368 C 103.014 285.281,102.644 285.838,102.278 286.605 M54.000 293.600 C 53.551 294.480,53.274 295.200,53.384 295.200 C 53.494 295.200,53.951 294.480,54.400 293.600 C 54.849 292.720,55.126 292.000,55.016 292.000 C 54.906 292.000,54.449 292.720,54.000 293.600 M350.000 298.400 C 350.449 299.280,350.906 300.000,351.016 300.000 C 351.126 300.000,350.849 299.280,350.400 298.400 C 349.951 297.520,349.494 296.800,349.384 296.800 C 349.274 296.800,349.551 297.520,350.000 298.400 " stroke="none" fill="#949494" fill-rule="evenodd"></path><path id="path7" d="M178.331 65.615 C 177.660 66.006,176.000 68.422,176.000 69.007 C 176.000 69.179,176.534 68.582,177.188 67.680 C 178.787 65.473,177.865 65.547,202.133 65.682 L 223.266 65.800 224.433 67.106 C 225.075 67.825,225.600 68.212,225.600 67.967 C 225.600 67.722,225.041 66.999,224.358 66.360 L 223.115 65.200 201.058 65.212 C 187.465 65.220,178.743 65.374,178.331 65.615 M175.387 70.140 C 174.732 70.870,173.200 73.460,173.200 73.838 C 173.200 74.027,173.836 73.217,174.613 72.037 C 175.941 70.020,176.313 69.110,175.387 70.140 M226.800 70.917 C 226.800 71.162,231.223 79.276,231.854 80.189 C 232.898 81.698,232.392 80.320,231.075 78.067 C 230.346 76.820,229.243 74.762,228.624 73.492 C 227.671 71.538,226.800 70.308,226.800 70.917 M172.117 75.850 C 171.723 76.703,171.175 77.638,170.900 77.929 C 170.625 78.219,170.400 78.744,170.400 79.095 C 170.400 79.909,170.440 79.857,171.977 77.065 C 172.685 75.781,173.167 74.633,173.049 74.515 C 172.931 74.397,172.512 74.998,172.117 75.850 M168.981 81.630 C 167.985 83.207,167.241 84.809,167.694 84.400 C 168.086 84.045,170.386 80.000,170.195 80.000 C 170.093 80.000,169.547 80.734,168.981 81.630 M232.400 81.307 C 232.400 81.879,238.902 93.231,239.111 93.023 C 239.256 92.877,238.349 91.147,236.480 88.000 C 236.022 87.230,235.083 85.477,234.393 84.104 C 233.339 82.009,232.400 80.691,232.400 81.307 M166.950 85.273 C 166.768 85.563,166.075 86.822,165.410 88.072 C 164.744 89.321,163.693 91.174,163.073 92.190 C 162.453 93.205,162.008 94.223,162.084 94.453 C 162.161 94.682,162.668 94.038,163.212 93.021 C 164.243 91.093,164.684 90.294,166.511 87.039 C 167.473 85.326,167.837 83.859,166.950 85.273 M239.203 93.688 C 239.200 93.972,240.187 95.830,241.870 98.711 C 242.349 99.530,243.147 101.000,243.644 101.979 C 244.141 102.957,244.623 103.532,244.715 103.256 C 244.807 102.980,244.594 102.435,244.241 102.045 C 243.888 101.656,243.600 101.167,243.600 100.959 C 243.600 100.752,242.970 99.625,242.200 98.456 C 241.430 97.287,240.799 96.211,240.797 96.065 C 240.794 95.698,239.206 93.331,239.203 93.688 M160.302 97.476 C 158.835 100.494,159.107 100.560,160.744 97.583 C 161.465 96.273,161.907 95.203,161.727 95.208 C 161.547 95.212,160.906 96.232,160.302 97.476 M158.491 100.900 C 157.774 101.782,155.135 106.869,155.306 107.040 C 155.397 107.130,155.815 106.534,156.236 105.713 C 156.656 104.893,157.490 103.362,158.090 102.311 C 159.153 100.446,159.310 99.893,158.491 100.900 M199.869 104.951 C 199.491 105.528,199.371 106.000,199.603 106.000 C 199.835 106.000,200.130 105.725,200.259 105.390 C 200.571 104.578,201.512 105.333,202.268 107.000 C 202.567 107.660,202.975 108.470,203.173 108.800 C 203.372 109.130,203.978 110.300,204.519 111.400 C 205.061 112.500,205.875 114.030,206.329 114.800 C 206.784 115.570,208.078 118.042,209.205 120.293 C 210.332 122.545,211.446 124.505,211.679 124.649 C 211.913 124.793,212.034 124.751,211.949 124.556 C 211.653 123.878,208.874 118.587,207.454 116.000 C 206.669 114.570,205.210 111.780,204.210 109.800 C 203.210 107.820,201.979 105.683,201.474 105.051 L 200.557 103.901 199.869 104.951 M244.800 104.168 C 244.800 104.261,245.655 105.844,246.700 107.686 C 247.745 109.528,248.954 111.721,249.386 112.560 C 249.818 113.399,250.242 113.875,250.327 113.619 C 250.412 113.363,250.194 112.835,249.841 112.445 C 249.488 112.056,249.200 111.594,249.200 111.420 C 249.200 111.042,245.167 104.000,244.950 104.000 C 244.868 104.000,244.800 104.076,244.800 104.168 M198.294 107.703 L 197.588 109.000 198.394 108.056 C 199.080 107.252,199.446 106.394,199.100 106.403 C 199.045 106.404,198.682 106.989,198.294 107.703 M154.323 108.465 C 154.026 108.979,153.569 109.760,153.309 110.200 C 152.013 112.389,149.596 117.329,149.746 117.480 C 149.841 117.574,150.389 116.695,150.964 115.526 C 152.364 112.683,154.305 109.196,154.862 108.525 C 155.111 108.225,155.213 107.879,155.089 107.756 C 154.965 107.632,154.621 107.951,154.323 108.465 M196.656 110.633 C 196.271 111.495,195.714 112.650,195.417 113.200 C 195.121 113.750,194.401 115.100,193.818 116.200 C 193.235 117.300,192.588 118.371,192.379 118.580 C 192.171 118.789,192.000 119.128,192.000 119.334 C 192.000 119.732,193.109 118.324,193.839 116.997 C 196.519 112.131,197.624 109.871,197.502 109.505 C 197.421 109.263,197.040 109.771,196.656 110.633 M250.400 114.702 C 250.400 114.922,250.670 115.326,251.000 115.600 C 251.335 115.878,251.600 115.921,251.600 115.698 C 251.600 115.478,251.330 115.074,251.000 114.800 C 250.665 114.522,250.400 114.479,250.400 114.702 M251.600 116.702 C 251.600 117.200,253.168 119.139,253.187 118.663 C 253.194 118.478,252.840 117.869,252.400 117.309 C 251.960 116.750,251.600 116.476,251.600 116.702 M148.205 119.593 C 146.564 122.191,146.533 122.852,148.165 120.446 C 148.968 119.261,149.543 118.209,149.441 118.108 C 149.340 118.007,148.784 118.675,148.205 119.593 M253.200 119.239 C 253.200 119.692,255.983 124.560,255.991 124.121 C 256.001 123.585,254.167 120.009,253.579 119.420 C 253.371 119.211,253.200 119.129,253.200 119.239 M190.964 121.487 C 190.544 122.307,189.705 123.846,189.100 124.907 C 187.926 126.965,187.782 127.382,188.369 127.019 C 188.823 126.739,192.083 120.349,191.877 120.143 C 191.795 120.062,191.385 120.666,190.964 121.487 M146.262 123.071 C 145.888 123.446,143.998 127.475,144.009 127.875 C 144.014 128.054,144.642 127.043,145.404 125.628 C 146.664 123.289,146.978 122.356,146.262 123.071 M256.839 126.300 C 258.198 128.554,258.800 129.410,258.800 129.089 C 258.800 128.536,256.598 124.811,256.267 124.806 C 256.084 124.803,256.342 125.475,256.839 126.300 M212.000 125.485 C 212.000 125.701,212.360 126.293,212.800 126.800 C 213.240 127.307,213.600 127.588,213.600 127.424 C 213.600 127.260,213.240 126.669,212.800 126.109 C 212.360 125.550,212.000 125.269,212.000 125.485 M187.061 128.667 C 186.654 129.210,186.415 129.748,186.529 129.862 C 186.643 129.976,187.045 129.598,187.422 129.022 C 188.312 127.664,188.023 127.380,187.061 128.667 M213.600 128.065 C 213.600 128.198,214.328 129.763,215.219 131.542 C 216.737 134.574,217.600 135.773,217.600 134.847 C 217.600 134.627,217.431 134.343,217.225 134.216 C 217.019 134.088,216.365 132.953,215.772 131.692 C 214.713 129.445,213.600 127.585,213.600 128.065 M143.392 128.706 C 143.167 128.868,142.761 129.450,142.488 130.000 C 142.216 130.550,141.530 131.781,140.965 132.735 C 140.400 133.690,140.018 134.552,140.117 134.651 C 140.216 134.750,141.117 133.384,142.119 131.615 C 143.121 129.847,143.909 128.403,143.870 128.406 C 143.832 128.409,143.616 128.544,143.392 128.706 M258.800 129.759 C 258.800 129.872,259.340 130.881,260.000 132.000 C 260.660 133.119,261.200 134.237,261.200 134.484 C 261.200 134.731,261.320 134.814,261.466 134.668 C 261.748 134.385,259.736 130.131,259.148 129.768 C 258.957 129.650,258.800 129.645,258.800 129.759 M185.671 131.235 C 185.381 131.699,185.221 132.155,185.315 132.249 C 185.593 132.526,186.488 131.264,186.337 130.810 C 186.260 130.580,185.960 130.771,185.671 131.235 M184.046 134.594 C 183.555 135.577,182.984 136.487,182.776 136.615 C 182.569 136.743,182.406 137.062,182.413 137.324 C 182.432 137.986,184.000 136.041,184.000 135.356 C 184.000 135.050,184.168 134.800,184.373 134.800 C 184.578 134.800,184.865 134.426,185.010 133.970 C 185.497 132.434,184.947 132.791,184.046 134.594 M138.811 136.879 C 137.434 139.572,136.642 140.926,136.100 141.514 C 135.825 141.813,135.600 142.292,135.600 142.580 C 135.600 142.867,135.348 143.311,135.039 143.567 C 134.731 143.823,134.372 144.456,134.242 144.973 C 134.113 145.491,133.087 147.476,131.964 149.384 C 130.840 151.293,129.998 152.931,130.091 153.024 C 130.263 153.196,133.276 148.003,135.327 144.000 C 135.946 142.790,136.793 141.260,137.209 140.600 C 138.497 138.552,140.031 135.497,139.857 135.324 C 139.766 135.233,139.295 135.933,138.811 136.879 M263.491 138.389 C 264.516 140.143,265.421 141.513,265.501 141.432 C 265.672 141.261,264.633 139.315,263.082 136.900 C 261.250 134.048,261.513 135.005,263.491 138.389 M217.606 135.856 C 217.603 136.106,217.970 136.736,218.423 137.256 C 219.069 137.998,219.158 138.029,218.836 137.400 C 218.142 136.043,217.613 135.378,217.606 135.856 M180.913 140.187 C 180.229 141.377,179.543 142.750,179.388 143.236 C 179.234 143.723,178.573 145.039,177.919 146.161 C 177.265 147.282,177.005 147.930,177.340 147.600 C 177.996 146.953,182.491 138.358,182.282 138.149 C 182.213 138.079,181.596 138.996,180.913 140.187 M219.200 138.875 C 219.200 139.220,219.470 139.726,219.800 140.000 C 220.563 140.634,220.556 140.039,219.787 139.024 C 219.317 138.402,219.200 138.372,219.200 138.875 M220.471 141.300 C 220.699 142.181,223.790 147.595,224.067 147.597 C 224.213 147.599,223.903 146.835,223.377 145.900 C 222.851 144.965,222.036 143.435,221.566 142.500 C 220.741 140.857,220.204 140.270,220.471 141.300 M265.603 142.067 C 265.598 142.556,267.620 146.365,268.013 146.608 C 268.636 146.993,268.457 146.145,267.800 145.600 C 267.470 145.326,267.199 144.899,267.197 144.651 C 267.196 144.403,266.837 143.660,266.400 143.000 C 265.963 142.340,265.604 141.920,265.603 142.067 M268.400 147.553 C 268.400 147.773,268.564 148.054,268.765 148.179 C 268.966 148.303,269.527 149.223,270.011 150.223 C 270.495 151.223,270.966 151.967,271.057 151.876 C 271.280 151.653,269.275 147.694,268.787 147.392 C 268.574 147.260,268.400 147.333,268.400 147.553 M224.561 148.597 C 225.256 150.517,226.621 153.200,226.903 153.200 C 227.073 153.200,226.648 152.075,225.958 150.700 C 224.664 148.118,224.057 147.204,224.561 148.597 M175.242 150.842 C 174.536 152.189,174.044 153.378,174.150 153.483 C 174.255 153.588,174.898 152.551,175.579 151.179 C 177.189 147.933,176.912 147.656,175.242 150.842 M271.267 152.704 C 271.816 153.956,273.761 157.172,273.891 157.042 C 274.079 156.855,271.620 152.400,271.328 152.400 C 271.221 152.400,271.193 152.537,271.267 152.704 M129.043 154.233 C 128.605 155.373,128.788 155.768,129.387 154.976 C 129.710 154.549,129.980 154.065,129.987 153.900 C 130.011 153.341,129.287 153.596,129.043 154.233 M227.423 154.400 C 227.580 154.950,227.846 155.490,228.015 155.600 C 228.184 155.710,228.985 157.120,229.794 158.734 C 230.604 160.347,231.355 161.579,231.462 161.471 C 231.662 161.271,229.636 157.338,228.026 154.800 C 227.328 153.699,227.199 153.613,227.423 154.400 M171.970 157.071 C 169.845 160.751,169.669 161.166,170.535 160.451 C 170.901 160.149,171.200 159.723,171.200 159.503 C 171.200 159.284,171.849 158.036,172.643 156.729 C 173.437 155.422,174.008 154.275,173.913 154.180 C 173.817 154.084,172.943 155.385,171.970 157.071 M128.106 156.490 C 127.882 156.771,127.579 157.389,127.433 157.864 C 127.288 158.339,126.906 158.946,126.585 159.213 C 125.950 159.739,125.767 160.591,126.368 160.220 C 126.839 159.928,128.860 156.327,128.663 156.130 C 128.581 156.048,128.330 156.210,128.106 156.490 M276.055 161.480 C 277.179 163.636,278.778 166.570,279.609 168.000 C 280.440 169.430,281.400 171.140,281.744 171.800 C 282.087 172.460,282.375 172.760,282.384 172.467 C 282.398 172.014,280.474 168.355,279.194 166.400 C 278.847 165.868,278.310 164.849,275.511 159.402 C 275.132 158.664,274.640 157.948,274.417 157.810 C 274.194 157.673,274.931 159.324,276.055 161.480 M124.448 162.976 C 123.762 164.192,123.204 165.416,123.209 165.694 C 123.214 165.972,123.842 165.043,124.604 163.628 C 126.307 160.467,126.176 159.915,124.448 162.976 M168.796 163.103 C 168.277 164.146,167.346 165.863,166.726 166.918 C 165.512 168.985,165.306 169.576,166.100 168.714 C 167.052 167.681,170.174 161.641,169.899 161.366 C 169.811 161.278,169.314 162.059,168.796 163.103 M231.603 162.138 C 231.599 162.559,232.766 164.681,233.700 165.954 C 234.085 166.479,234.400 166.726,234.400 166.503 C 234.400 166.280,234.130 165.874,233.800 165.600 C 233.470 165.326,233.199 164.899,233.197 164.651 C 233.196 164.403,232.837 163.660,232.400 163.000 C 231.963 162.340,231.604 161.952,231.603 162.138 M121.826 167.959 C 121.285 168.817,119.737 171.652,118.386 174.259 C 117.036 176.867,115.729 179.244,115.481 179.543 C 114.781 180.387,112.000 185.657,112.000 186.140 C 112.000 186.245,111.370 187.287,110.600 188.456 C 109.830 189.625,109.200 190.762,109.200 190.982 C 109.200 191.620,111.806 187.487,113.014 184.933 C 113.621 183.650,114.514 181.970,114.998 181.200 C 115.483 180.430,116.650 178.360,117.593 176.600 C 118.536 174.840,119.919 172.260,120.666 170.867 C 121.413 169.474,122.310 167.899,122.658 167.367 C 123.007 166.835,123.184 166.400,123.051 166.400 C 122.918 166.400,122.367 167.102,121.826 167.959 M234.400 167.502 C 234.400 167.722,234.670 168.126,235.000 168.400 C 235.335 168.678,235.600 168.721,235.600 168.498 C 235.600 168.278,235.330 167.874,235.000 167.600 C 234.665 167.322,234.400 167.279,234.400 167.502 M235.600 169.358 C 235.600 169.887,237.643 173.979,238.025 174.216 C 238.595 174.568,238.502 174.306,237.152 171.756 C 235.818 169.237,235.600 168.901,235.600 169.358 M164.818 170.366 C 164.573 170.825,164.539 171.200,164.743 171.200 C 165.154 171.200,165.722 169.988,165.442 169.708 C 165.344 169.611,165.064 169.907,164.818 170.366 M162.986 173.911 C 161.437 176.945,161.435 176.949,161.896 176.664 C 162.424 176.338,164.585 172.052,164.344 171.810 C 164.240 171.707,163.630 172.652,162.986 173.911 M283.077 174.500 C 284.103 176.345,285.200 177.783,285.200 177.283 C 285.200 177.049,284.967 176.619,284.683 176.329 C 284.399 176.038,283.927 175.215,283.635 174.500 C 283.342 173.785,282.935 173.200,282.729 173.200 C 282.523 173.200,282.680 173.785,283.077 174.500 M238.528 175.270 C 238.878 176.317,240.837 179.296,241.041 179.092 C 241.143 178.991,240.568 177.939,239.765 176.754 C 238.962 175.569,238.405 174.901,238.528 175.270 M160.661 178.267 C 160.254 178.810,160.005 179.338,160.107 179.440 C 160.208 179.542,160.600 179.154,160.978 178.578 C 161.867 177.221,161.622 176.981,160.661 178.267 M285.200 178.102 C 285.200 178.247,285.695 179.233,286.300 180.293 C 286.905 181.354,287.744 182.893,288.164 183.713 C 288.585 184.534,288.997 185.137,289.080 185.054 C 289.260 184.873,286.149 178.789,285.590 178.230 C 285.375 178.015,285.200 177.958,285.200 178.102 M241.237 180.000 C 241.254 180.330,242.058 182.040,243.023 183.800 C 243.989 185.560,245.051 187.573,245.383 188.273 C 245.921 189.405,246.800 190.380,246.800 189.845 C 246.800 189.734,246.194 188.598,245.453 187.321 C 244.713 186.045,243.454 183.740,242.656 182.200 C 241.858 180.660,241.219 179.670,241.237 180.000 M159.257 180.857 C 158.975 181.309,158.832 181.766,158.940 181.873 C 159.047 181.981,159.344 181.678,159.600 181.200 C 159.856 180.722,159.998 180.265,159.917 180.184 C 159.836 180.103,159.539 180.406,159.257 180.857 M157.840 183.640 C 157.445 184.308,157.216 184.950,157.332 185.065 C 157.447 185.180,157.838 184.701,158.200 184.000 C 158.562 183.299,158.791 182.658,158.708 182.575 C 158.626 182.492,158.235 182.972,157.840 183.640 M156.400 186.200 C 156.117 186.541,155.976 186.909,156.086 187.019 C 156.196 187.129,156.517 186.941,156.800 186.600 C 157.083 186.259,157.224 185.891,157.114 185.781 C 157.004 185.671,156.683 185.859,156.400 186.200 M289.564 186.200 C 290.258 187.557,290.787 188.222,290.794 187.744 C 290.797 187.494,290.430 186.864,289.977 186.344 C 289.331 185.602,289.242 185.571,289.564 186.200 M155.204 188.518 C 154.529 189.570,153.200 192.101,153.200 192.334 C 153.200 192.982,154.401 191.307,154.606 190.372 C 154.748 189.728,155.010 189.200,155.189 189.200 C 155.523 189.200,156.118 187.985,155.894 187.761 C 155.826 187.692,155.515 188.033,155.204 188.518 M292.118 190.916 C 292.823 192.300,293.459 193.291,293.532 193.120 C 293.707 192.707,291.519 188.400,291.135 188.400 C 290.970 188.400,291.413 189.532,292.118 190.916 M246.809 190.663 C 246.800 191.123,248.201 193.901,249.603 196.200 C 250.005 196.860,251.249 199.235,252.368 201.477 C 253.486 203.719,254.581 205.665,254.801 205.801 C 255.355 206.143,255.299 205.732,254.650 204.686 C 254.347 204.199,253.106 201.910,251.892 199.600 C 248.340 192.842,246.819 190.168,246.809 190.663 M108.554 192.073 C 108.375 192.363,107.437 194.130,106.470 196.000 C 105.504 197.870,104.569 199.580,104.392 199.800 C 103.766 200.581,101.196 205.729,101.353 205.887 C 101.442 205.975,102.411 204.371,103.507 202.324 C 104.603 200.276,106.332 197.085,107.349 195.232 C 108.863 192.476,109.757 190.131,108.554 192.073 M151.672 195.320 C 150.822 196.938,150.653 197.472,151.185 196.856 C 151.633 196.336,152.000 195.661,152.000 195.356 C 152.000 195.050,152.168 194.800,152.373 194.800 C 152.578 194.800,152.865 194.426,153.010 193.970 C 153.540 192.298,152.941 192.903,151.672 195.320 M295.512 197.182 C 296.533 198.933,297.435 200.298,297.516 200.217 C 297.598 200.136,297.171 199.199,296.568 198.135 C 295.964 197.071,295.217 195.705,294.906 195.100 C 294.596 194.495,294.187 194.000,293.998 194.000 C 293.809 194.000,294.490 195.432,295.512 197.182 M149.479 199.174 C 148.504 200.825,148.653 201.251,149.657 199.683 C 150.120 198.959,150.423 198.290,150.329 198.196 C 150.235 198.102,149.852 198.542,149.479 199.174 M297.600 200.866 C 297.600 201.171,299.007 203.792,299.707 204.789 C 300.088 205.333,300.400 205.571,300.400 205.318 C 300.400 205.064,300.139 204.596,299.820 204.277 C 299.501 203.958,299.123 203.232,298.981 202.665 C 298.768 201.820,297.600 200.298,297.600 200.866 M146.392 205.076 C 145.241 207.234,143.317 210.888,142.119 213.195 C 140.920 215.503,139.747 217.622,139.513 217.905 C 139.278 218.188,139.187 218.521,139.311 218.644 C 139.435 218.768,139.779 218.449,140.077 217.935 C 140.374 217.421,140.830 216.640,141.089 216.200 C 141.688 215.184,143.029 212.502,143.589 211.200 C 143.825 210.650,144.446 209.480,144.968 208.600 C 146.726 205.633,148.825 201.491,148.655 201.322 C 148.562 201.229,147.544 202.919,146.392 205.076 M300.400 206.353 C 300.400 206.573,300.555 206.848,300.744 206.965 C 300.933 207.082,301.865 208.711,302.815 210.584 C 303.765 212.458,304.614 213.920,304.701 213.833 C 304.842 213.691,303.983 211.834,301.911 207.802 C 301.200 206.417,300.400 205.650,300.400 206.353 M100.638 206.900 C 100.502 207.175,100.041 207.940,99.614 208.600 C 98.371 210.518,96.762 213.696,96.943 213.876 C 97.034 213.967,97.505 213.267,97.989 212.321 C 99.366 209.628,100.158 208.274,100.700 207.686 C 101.175 207.170,101.380 206.400,101.043 206.400 C 100.956 206.400,100.774 206.625,100.638 206.900 M255.200 206.753 C 255.200 206.973,255.364 207.254,255.565 207.379 C 255.766 207.503,256.327 208.423,256.811 209.423 C 257.295 210.423,257.753 211.180,257.828 211.105 C 258.036 210.897,256.043 206.874,255.594 206.596 C 255.377 206.462,255.200 206.533,255.200 206.753 M258.012 211.690 C 257.998 212.026,260.714 217.165,261.284 217.882 C 261.495 218.146,262.287 219.656,263.045 221.237 C 263.802 222.818,264.500 224.034,264.594 223.939 C 264.868 223.665,261.096 216.378,258.512 212.191 C 258.244 211.756,258.019 211.530,258.012 211.690 M96.073 214.887 C 95.813 215.147,95.600 215.522,95.600 215.720 C 95.600 215.917,94.598 217.781,93.374 219.862 C 92.150 221.942,91.216 223.849,91.300 224.101 C 91.384 224.352,91.855 223.757,92.346 222.779 C 92.837 221.800,93.400 220.730,93.597 220.400 C 96.321 215.831,97.294 213.666,96.073 214.887 M305.699 215.856 C 306.229 216.705,307.093 218.271,307.620 219.335 C 308.146 220.399,308.639 221.082,308.716 220.852 C 308.874 220.379,305.816 214.981,305.161 214.576 C 304.927 214.431,305.168 215.007,305.699 215.856 M138.400 219.800 C 138.117 220.141,137.976 220.509,138.086 220.619 C 138.196 220.729,138.517 220.541,138.800 220.200 C 139.083 219.859,139.224 219.491,139.114 219.381 C 139.004 219.271,138.683 219.459,138.400 219.800 M136.586 223.511 C 135.037 226.545,135.035 226.549,135.496 226.264 C 136.024 225.938,138.185 221.652,137.944 221.410 C 137.840 221.307,137.230 222.252,136.586 223.511 M309.218 222.434 C 309.464 222.893,309.744 223.189,309.842 223.092 C 310.122 222.812,309.554 221.600,309.143 221.600 C 308.939 221.600,308.973 221.975,309.218 222.434 M310.000 223.715 C 310.000 223.837,310.855 225.444,311.900 227.286 C 312.945 229.128,314.144 231.303,314.564 232.120 C 314.985 232.937,315.395 233.538,315.476 233.457 C 315.608 233.326,313.104 228.290,311.870 226.205 C 311.166 225.013,310.000 223.461,310.000 223.715 M264.806 224.656 C 264.803 224.906,265.170 225.536,265.623 226.056 C 266.269 226.798,266.358 226.829,266.036 226.200 C 265.342 224.843,264.813 224.178,264.806 224.656 M90.400 225.400 C 90.117 225.741,89.976 226.109,90.086 226.219 C 90.196 226.329,90.517 226.141,90.800 225.800 C 91.083 225.459,91.224 225.091,91.114 224.981 C 91.004 224.871,90.683 225.059,90.400 225.400 M89.093 227.708 C 88.712 228.178,88.401 228.841,88.401 229.181 C 88.402 229.522,88.772 229.195,89.223 228.455 C 90.175 226.894,90.101 226.467,89.093 227.708 M134.416 227.700 C 133.311 229.423,132.488 231.200,132.795 231.200 C 132.964 231.200,133.342 230.615,133.635 229.900 C 133.927 229.185,134.399 228.362,134.683 228.071 C 135.133 227.612,135.396 226.800,135.096 226.800 C 135.039 226.800,134.733 227.205,134.416 227.700 M266.400 227.502 C 266.400 227.722,266.670 228.126,267.000 228.400 C 267.335 228.678,267.600 228.721,267.600 228.498 C 267.600 228.278,267.330 227.874,267.000 227.600 C 266.665 227.322,266.400 227.279,266.400 227.502 M267.609 229.325 C 267.594 229.862,269.622 233.966,270.025 234.216 C 270.231 234.343,270.400 234.383,270.400 234.305 C 270.400 233.989,267.618 229.024,267.609 229.325 M86.582 232.201 C 85.969 233.411,85.545 234.479,85.639 234.573 C 85.733 234.667,86.370 233.676,87.054 232.372 C 87.738 231.067,88.163 230.000,87.997 230.000 C 87.831 230.000,87.194 230.990,86.582 232.201 M130.909 234.262 C 130.198 235.678,129.787 236.731,129.995 236.603 C 130.489 236.298,132.461 232.369,132.313 231.984 C 132.251 231.820,131.619 232.845,130.909 234.262 M315.613 234.137 C 315.606 234.322,315.960 234.931,316.400 235.491 C 316.840 236.050,317.200 236.324,317.200 236.098 C 317.200 235.600,315.632 233.661,315.613 234.137 M270.400 234.933 C 270.400 235.428,272.597 239.188,272.890 239.194 C 273.049 239.197,272.625 238.255,271.947 237.100 C 270.611 234.823,270.400 234.527,270.400 234.933 M84.181 236.830 C 83.185 238.407,82.441 240.009,82.894 239.600 C 83.286 239.245,85.586 235.200,85.395 235.200 C 85.293 235.200,84.747 235.934,84.181 236.830 M128.165 239.294 C 126.756 241.832,126.543 242.346,127.129 241.800 C 127.704 241.264,129.672 237.538,129.480 237.347 C 129.397 237.264,128.805 238.140,128.165 239.294 M318.400 238.859 C 318.400 239.628,323.976 249.393,323.992 248.652 C 323.999 248.363,322.220 245.132,320.771 242.800 C 320.566 242.470,320.216 241.777,319.994 241.260 C 319.543 240.212,318.400 238.490,318.400 238.859 M273.202 239.867 C 273.199 240.513,275.137 244.314,275.622 244.614 C 275.839 244.748,275.662 244.170,275.229 243.329 C 274.795 242.488,274.162 241.260,273.822 240.600 C 273.483 239.940,273.204 239.610,273.202 239.867 M80.870 242.700 C 80.151 244.185,79.404 245.670,79.210 246.000 C 76.730 250.208,75.940 251.674,76.078 251.812 C 76.256 251.989,78.511 248.198,80.724 244.000 C 81.478 242.570,82.253 241.229,82.447 241.020 C 82.884 240.550,82.906 240.000,82.488 240.000 C 82.317 240.000,81.589 241.215,80.870 242.700 M125.644 244.021 C 125.147 245.000,124.321 246.520,123.808 247.400 C 123.006 248.777,120.536 253.488,120.056 254.556 C 119.968 254.751,120.088 254.793,120.323 254.648 C 120.784 254.363,122.800 250.301,122.800 249.658 C 122.800 249.443,122.938 249.207,123.108 249.133 C 123.664 248.892,126.859 243.177,126.702 242.705 C 126.617 242.451,126.141 243.043,125.644 244.021 M276.000 245.498 C 276.000 245.736,276.630 246.887,277.400 248.056 C 279.134 250.689,279.229 250.366,277.558 247.518 C 276.124 245.074,276.000 244.913,276.000 245.498 M324.000 249.291 C 324.000 249.608,326.041 253.374,326.433 253.780 C 326.663 254.018,326.800 253.992,326.800 253.709 C 326.800 253.460,326.539 252.996,326.220 252.677 C 325.901 252.358,325.523 251.632,325.381 251.065 C 325.163 250.198,324.000 248.704,324.000 249.291 M278.800 250.875 C 278.800 251.220,279.070 251.726,279.400 252.000 C 280.163 252.634,280.156 252.039,279.387 251.024 C 278.917 250.402,278.800 250.372,278.800 250.875 M75.232 253.139 C 74.579 254.360,74.714 254.700,75.441 253.663 C 75.793 253.160,75.988 252.654,75.873 252.540 C 75.759 252.425,75.470 252.695,75.232 253.139 M280.027 253.011 C 280.041 253.225,280.577 254.300,281.217 255.400 C 281.857 256.500,282.636 257.963,282.949 258.651 C 283.262 259.339,283.717 260.025,283.959 260.175 C 284.498 260.508,284.545 259.906,284.022 259.380 C 283.814 259.171,283.070 257.920,282.369 256.600 C 280.917 253.865,279.988 252.442,280.027 253.011 M326.800 254.691 C 326.800 254.883,326.960 255.211,327.156 255.420 C 327.352 255.629,328.369 257.420,329.416 259.400 C 331.325 263.009,332.400 264.788,332.400 264.337 C 332.400 264.204,331.592 262.589,330.605 260.748 C 329.617 258.906,328.584 256.950,328.309 256.400 C 327.727 255.235,326.800 254.186,326.800 254.691 M73.900 255.788 C 72.944 257.103,73.014 257.536,74.000 256.400 C 74.440 255.893,74.800 255.325,74.800 255.139 C 74.800 254.635,74.670 254.729,73.900 255.788 M118.519 257.435 C 117.814 258.626,117.364 259.597,117.519 259.594 C 117.831 259.588,120.121 255.586,119.924 255.392 C 119.856 255.325,119.224 256.244,118.519 257.435 M72.300 258.500 C 72.015 258.995,71.569 259.760,71.308 260.200 C 70.390 261.748,68.800 265.155,68.800 265.575 C 68.800 265.809,68.665 266.001,68.500 266.003 C 68.179 266.005,67.634 266.901,65.129 271.538 C 64.256 273.153,63.633 274.567,63.745 274.679 C 63.857 274.790,64.610 273.568,65.419 271.962 C 66.228 270.356,67.352 268.313,67.919 267.421 C 69.187 265.423,73.227 257.600,72.991 257.600 C 72.896 257.600,72.585 258.005,72.300 258.500 M284.405 261.067 C 284.398 261.704,286.333 265.511,286.813 265.808 C 287.443 266.197,287.275 265.749,285.805 263.107 C 285.037 261.728,284.407 260.810,284.405 261.067 M114.729 264.459 C 112.685 268.425,112.552 268.738,113.144 268.186 C 113.752 267.619,116.837 261.504,116.623 261.290 C 116.528 261.195,115.676 262.621,114.729 264.459 M333.820 267.400 C 335.391 270.320,336.400 271.942,336.400 271.546 C 336.400 271.050,333.510 265.767,332.929 265.200 C 332.590 264.870,332.991 265.860,333.820 267.400 M287.200 266.702 C 287.200 266.922,287.470 267.326,287.800 267.600 C 288.135 267.878,288.400 267.921,288.400 267.698 C 288.400 267.478,288.130 267.074,287.800 266.800 C 287.465 266.522,287.200 266.479,287.200 266.702 M288.400 268.550 C 288.400 268.716,288.586 269.201,288.814 269.626 C 289.042 270.052,289.177 270.444,289.114 270.497 C 289.051 270.551,257.500 270.686,219.000 270.797 L 149.000 271.000 147.346 274.400 C 146.436 276.270,145.299 278.700,144.819 279.800 C 144.338 280.900,143.670 282.307,143.334 282.928 C 142.997 283.548,142.808 284.142,142.914 284.247 C 143.093 284.427,146.000 278.787,146.000 278.260 C 146.000 277.422,148.943 271.951,149.576 271.613 C 150.098 271.334,172.706 271.200,219.341 271.200 C 287.288 271.200,289.613 271.169,289.587 270.257 C 289.573 269.752,288.400 268.065,288.400 268.550 M109.823 273.758 C 108.955 275.541,107.731 277.787,107.104 278.748 C 106.476 279.709,106.048 280.581,106.152 280.686 C 106.355 280.889,108.183 278.141,108.816 276.681 C 109.026 276.196,109.367 275.530,109.574 275.200 C 110.332 273.992,111.734 270.802,111.569 270.661 C 111.476 270.582,110.690 271.975,109.823 273.758 M336.400 272.183 C 336.400 272.343,336.760 272.931,337.200 273.491 C 337.640 274.050,338.000 274.377,338.000 274.217 C 338.000 274.057,337.640 273.469,337.200 272.909 C 336.760 272.350,336.400 272.023,336.400 272.183 M338.000 275.102 C 338.000 275.322,338.270 275.726,338.600 276.000 C 338.935 276.278,339.200 276.321,339.200 276.098 C 339.200 275.878,338.930 275.474,338.600 275.200 C 338.265 274.922,338.000 274.879,338.000 275.102 M62.661 276.267 C 62.254 276.810,62.005 277.338,62.107 277.440 C 62.208 277.542,62.600 277.154,62.978 276.578 C 63.867 275.221,63.622 274.981,62.661 276.267 M339.203 277.014 C 339.204 277.226,339.578 277.940,340.033 278.600 C 340.803 279.717,340.842 279.731,340.587 278.800 C 340.304 277.762,339.198 276.336,339.203 277.014 M61.330 278.490 C 60.649 279.393,57.956 284.890,58.117 285.050 C 58.202 285.135,58.615 284.534,59.036 283.713 C 59.456 282.893,60.303 281.340,60.918 280.262 C 61.953 278.449,62.216 277.315,61.330 278.490 M340.813 280.251 C 340.839 280.960,342.000 282.207,342.000 281.525 C 342.000 281.180,341.730 280.674,341.400 280.400 C 341.070 280.126,340.806 280.059,340.813 280.251 M104.602 283.480 C 103.025 286.568,103.031 286.551,103.535 286.240 C 104.104 285.888,106.063 281.990,105.907 281.520 C 105.841 281.322,105.253 282.204,104.602 283.480 M342.013 282.537 C 342.006 282.722,342.360 283.331,342.800 283.891 C 343.240 284.450,343.600 284.724,343.600 284.498 C 343.600 284.000,342.032 282.061,342.013 282.537 M141.879 285.974 C 141.506 286.606,141.208 287.366,141.218 287.662 C 141.227 287.958,141.600 287.508,142.047 286.662 C 143.001 284.854,142.867 284.302,141.879 285.974 M56.955 286.612 C 56.590 287.169,56.370 287.704,56.467 287.800 C 56.563 287.897,56.958 287.441,57.344 286.788 C 58.198 285.342,57.881 285.199,56.955 286.612 M102.452 287.666 C 102.167 288.122,100.980 290.319,99.814 292.548 C 95.646 300.513,94.589 302.334,93.809 302.894 C 93.539 303.088,93.551 303.190,93.846 303.194 C 94.240 303.199,95.248 301.854,96.690 299.400 C 96.948 298.960,98.016 296.890,99.062 294.800 C 100.108 292.710,101.489 290.136,102.129 289.080 C 102.769 288.024,103.220 287.087,103.131 286.998 C 103.043 286.909,102.737 287.210,102.452 287.666 M344.800 287.287 C 344.800 287.543,347.151 291.952,348.954 295.078 C 351.742 299.912,352.553 301.934,351.980 302.624 C 351.575 303.112,348.067 303.207,329.051 303.247 C 316.703 303.273,307.140 303.432,307.800 303.600 C 310.001 304.160,350.472 304.053,351.596 303.484 C 353.277 302.634,352.477 299.585,349.344 294.899 C 348.866 294.184,347.819 292.254,347.018 290.611 C 345.821 288.155,344.800 286.625,344.800 287.287 M55.171 289.700 C 54.882 290.415,54.524 291.090,54.377 291.200 C 54.229 291.310,53.971 291.850,53.804 292.400 C 53.382 293.792,53.707 293.372,55.122 290.700 C 55.792 289.435,56.195 288.400,56.018 288.400 C 55.842 288.400,55.460 288.985,55.171 289.700 M140.432 289.139 C 140.195 289.584,140.007 290.184,140.016 290.474 C 140.025 290.763,140.309 290.489,140.647 289.865 C 140.986 289.240,141.173 288.640,141.064 288.530 C 140.954 288.421,140.670 288.695,140.432 289.139 M137.693 295.262 C 134.775 301.410,134.612 301.891,135.200 302.600 C 135.640 303.130,145.600 303.189,220.949 303.101 L 306.200 303.003 221.000 302.801 L 135.800 302.600 135.683 301.595 C 135.612 300.994,136.464 298.758,137.797 296.042 C 139.024 293.541,139.945 291.412,139.843 291.310 C 139.741 291.207,138.773 292.986,137.693 295.262 M52.926 294.100 C 52.545 294.691,52.188 295.327,50.255 298.855 C 47.486 303.908,46.142 303.619,71.874 303.505 L 93.400 303.410 71.600 303.205 L 49.800 303.000 49.675 301.913 C 49.593 301.207,50.099 299.877,51.120 298.113 C 53.170 294.573,53.670 293.600,53.438 293.600 C 53.333 293.600,53.103 293.825,52.926 294.100 " stroke="none" fill="#cccccc" fill-rule="evenodd"></path></g></svg>