<?xml version="1.0" encoding="UTF-8" standalone="no"?>
<svg
   xmlns:dc="http://purl.org/dc/elements/1.1/"
   xmlns:cc="http://creativecommons.org/ns#"
   xmlns:rdf="http://www.w3.org/1999/02/22-rdf-syntax-ns#"
   xmlns:svg="http://www.w3.org/2000/svg"
   xmlns="http://www.w3.org/2000/svg"
   viewBox="0 0 284.49332 27.75997"
   height="27.75997"
   width="284.49332"
   xml:space="preserve"
   id="svg2"
   version="1.1"><metadata
     id="metadata8"><rdf:RDF><cc:Work
         rdf:about=""><dc:format>image/svg+xml</dc:format><dc:type
           rdf:resource="http://purl.org/dc/dcmitype/StillImage" /></cc:Work></rdf:RDF></metadata><defs
     id="defs6"><clipPath
       id="clipPath14"
       clipPathUnits="userSpaceOnUse"><path
         id="path12"
         d="M 0,0 H 360 V 360 H 0 Z" /></clipPath><clipPath
       id="clipPath30"
       clipPathUnits="userSpaceOnUse"><path
         id="path28"
         d="M 0,360 H 360 V 0 H 0 Z" /></clipPath></defs><g
     clip-path="url(#clipPath14)"
     transform="matrix(1.3333333,0,0,-1.3333333,-87.333333,228.15999)"
     id="g10"><g
       transform="translate(90.8754,151.0009)"
       id="g16"><path
         id="path18"
         style="fill:#ff6100;fill-opacity:1;fill-rule:nonzero;stroke:none"
         d="m 0,0 h -18 l 1.186,2.605 h 15.407 z" /></g><g
       transform="translate(204.9486,192.9218)"
       id="g20"><path
         id="path22"
         style="fill:#ff6100;fill-opacity:1;fill-rule:nonzero;stroke:none"
         d="m 0,0 h -45.589 l 3.002,6.599 h 39.024 z" /></g><g
       id="g24"><g
         clip-path="url(#clipPath30)"
         id="g26"><g
           transform="translate(98.8539,160.7919)"
           id="g32"><path
             id="path34"
             style="fill:#000000;fill-opacity:1;fill-rule:nonzero;stroke:none"
             d="m 0,0 v 6.526 h 9.571 c 2.742,0 4.608,-0.878 4.608,-3.263 C 14.179,0.877 12.313,0 9.571,0 Z m 17.552,3.29 c 0,3.978 -3.291,6.116 -7.761,6.116 H -3.264 V -9.791 h 3.291 v 6.966 h 8.09 l 5.952,-6.966 h 4.059 l -6.226,7.131 c 3.346,0.602 5.65,2.633 5.65,5.95" /></g><g
           transform="translate(133.518,153.332)"
           id="g36"><path
             id="path38"
             style="fill:#000000;fill-opacity:1;fill-rule:nonzero;stroke:none"
             d="m 0,0 c -5.073,0 -8.447,2.469 -8.447,7.268 0,4.799 3.374,7.267 8.447,7.267 3.127,0 5.567,-1.042 6.994,-3.4 l 3.071,1.535 c -1.782,2.743 -5.293,4.771 -10.01,4.771 -7.323,0 -11.848,-3.866 -11.848,-10.173 0,-6.308 4.525,-10.175 11.711,-10.175 4.854,0 8.365,2.002 10.175,4.799 L 7.049,3.4 C 5.595,1.015 3.127,0 0,0" /></g><g
           transform="translate(160.0648,153.332)"
           id="g40"><path
             id="path42"
             style="fill:#000000;fill-opacity:1;fill-rule:nonzero;stroke:none"
             d="m 0,0 c -5.238,0 -8.584,2.604 -8.584,7.268 0,4.662 3.373,7.267 8.584,7.267 5.211,0 8.557,-2.605 8.557,-7.267 C 8.557,2.604 5.211,0 0,0 m 0,17.441 c -7.377,0 -11.931,-3.838 -11.931,-10.173 0,-6.336 4.554,-10.175 11.931,-10.175 7.378,0 11.931,3.839 11.931,10.175 0,6.335 -4.553,10.173 -11.931,10.173" /></g><g
           transform="translate(181.9486,170.1982)"
           id="g44"><path
             id="path46"
             style="fill:#000000;fill-opacity:1;fill-rule:nonzero;stroke:none"
             d="m 0,0 h -3.291 v -19.197 h 17.442 v 2.907 H 0 Z" /></g><g
           transform="translate(211.3207,153.332)"
           id="g48"><path
             id="path50"
             style="fill:#000000;fill-opacity:1;fill-rule:nonzero;stroke:none"
             d="m 0,0 c -5.238,0 -8.585,2.604 -8.585,7.268 0,4.662 3.374,7.267 8.585,7.267 5.21,0 8.556,-2.605 8.556,-7.267 C 8.556,2.604 5.21,0 0,0 m 0,17.441 c -7.378,0 -11.931,-3.838 -11.931,-10.173 0,-6.336 4.553,-10.175 11.931,-10.175 7.377,0 11.93,3.839 11.93,10.175 0,6.335 -4.553,10.173 -11.93,10.173" /></g><g
           transform="translate(240.307,158.5693)"
           id="g52"><path
             id="path54"
             style="fill:#000000;fill-opacity:1;fill-rule:nonzero;stroke:none"
             d="m 0,0 h 8.008 v -2.193 c -1.4,-2.195 -4.142,-3.073 -7.515,-3.073 -5.513,0 -8.887,2.47 -8.887,7.296 0,4.827 3.32,7.295 8.722,7.295 3.209,0 5.458,-0.932 7.158,-2.852 l 2.688,1.92 c -1.92,2.056 -5.155,3.811 -9.873,3.811 -7.515,0 -12.04,-3.839 -12.04,-10.174 0,-6.336 4.525,-10.175 12.094,-10.175 5.266,0 9.079,2.057 10.834,4.882 V 2.825 L 0,2.825 Z" /></g><g
           transform="translate(274.9438,169.9238)"
           id="g56"><path
             id="path58"
             style="fill:#000000;fill-opacity:1;fill-rule:nonzero;stroke:none"
             d="M 0,0 -9.16,-12.017 -18.389,0 h -3.812 l 11.368,-14.842 v -4.081 h 3.291 v 4.081 L 3.784,0 Z" /></g><g
           transform="translate(185.3451,212.3114)"
           id="g60"><path
             id="path62"
             style="fill:#ff6100;fill-opacity:1;fill-rule:nonzero;stroke:none"
             d="M 0,0 -3.039,5.758 -0.001,0 Z" /></g><g
           transform="translate(168.4613,243.0009)"
           id="g64"><path
             id="path66"
             style="fill:#000000;fill-opacity:1;fill-rule:nonzero;stroke:none"
             d="m 0,0 -27.116,-50.079 h 9.301 l 6.368,12.091 h 0.012 l 3.851,7.299 h -0.001 l 2.829,5.358 0.154,0.291 9.252,17.527 8.987,-17.025 0.208,-0.394 3.039,-5.757 h -0.001 l 10.231,-19.39 h 9.373 L 9.443,0 Z" /></g><g
           transform="translate(182.0981,218.4628)"
           id="g68"><path
             id="path70"
             style="fill:#ff6100;fill-opacity:1;fill-rule:nonzero;stroke:none"
             d="M 0,0 V 0 L 0.208,-0.394 Z" /></g><g
           transform="translate(76.4691,170.7734)"
           id="g72"><path
             id="path74"
             style="fill:#000000;fill-opacity:1;fill-rule:nonzero;stroke:none"
             d="m 0,0 -10.707,-19.772 h 3.673 l 2.514,4.773 h 0.005 l 1.521,2.882 h -10e-4 l 1.117,2.116 0.061,0.114 3.653,6.921 3.548,-6.722 0.082,-0.156 1.2,-2.273 4.039,-7.655 h 3.701 L 3.729,0 Z" /></g></g></g><text
       id="text78"
       style="font-variant:normal;font-weight:100;font-stretch:normal;font-size:6.19420004px;font-family:'Myriad Pro';-inkscape-font-specification:InputSans-Thin;writing-mode:lr-tb;fill:#000000;fill-opacity:1;fill-rule:nonzero;stroke:none"
       transform="matrix(1,0,0,-1,8.981,344.4639)"><tspan
         id="tspan76"
         y="0"
         x="0 3.4006157 6.9251156 8.9753962 10.424839 13.825455 17.263235 18.576406">option 4</tspan></text>
</g></svg>